<svg id="svg" version="1.1" xmlns="http://www.w3.org/2000/svg" xmlns:xlink="http://www.w3.org/1999/xlink" width="400" height="400" viewBox="0, 0, 400,400"><g id="svgg"><path id="path0" d="M185.800 8.370 C 185.360 8.546,184.804 8.616,184.564 8.526 C 183.946 8.296,183.128 9.403,183.276 10.270 C 183.391 10.946,182.950 11.008,177.286 11.110 L 171.172 11.221 170.770 12.279 C 170.548 12.862,170.451 13.556,170.554 13.824 C 170.692 14.185,169.373 14.349,165.400 14.465 C 159.899 14.626,158.400 15.096,158.400 16.662 C 158.400 17.029,157.796 17.219,156.500 17.259 C 154.558 17.320,153.707 17.400,153.000 17.588 C 152.780 17.647,152.452 17.669,152.270 17.637 C 152.089 17.606,152.047 17.752,152.177 17.962 C 152.307 18.173,152.223 18.462,151.990 18.606 C 151.758 18.750,151.677 19.212,151.811 19.634 C 152.034 20.336,151.826 20.402,149.327 20.430 C 144.694 20.480,142.524 21.302,143.007 22.822 C 143.217 23.482,143.053 23.605,141.927 23.631 C 139.005 23.698,136.954 24.531,136.641 25.777 C 136.448 26.549,136.073 26.722,134.165 26.919 C 131.783 27.165,130.400 28.025,130.400 29.262 C 130.400 29.870,130.083 30.000,128.600 30.000 L 126.800 30.000 126.800 31.600 L 126.800 33.200 124.400 33.250 C 121.150 33.318,121.003 33.341,120.980 33.800 C 120.917 35.088,120.262 36.004,119.373 36.050 C 118.838 36.078,118.175 36.123,117.900 36.150 C 117.623 36.178,117.345 36.869,117.276 37.700 C 117.156 39.149,117.100 39.200,115.626 39.200 C 113.496 39.200,111.572 39.630,111.830 40.049 C 111.950 40.242,111.849 40.400,111.606 40.400 C 111.363 40.400,111.194 40.625,111.230 40.900 C 111.390 42.134,111.137 42.400,109.800 42.400 C 108.979 42.400,108.375 42.607,108.339 42.900 C 108.306 43.175,108.236 43.580,108.185 43.800 C 108.134 44.020,108.072 44.504,108.046 44.876 C 108.013 45.358,107.569 45.587,106.500 45.676 C 105.081 45.793,104.993 45.881,104.876 47.300 C 104.755 48.758,104.708 48.800,103.176 48.800 C 102.309 48.800,101.600 48.992,101.600 49.227 C 101.600 49.462,101.265 49.548,100.856 49.418 C 99.958 49.133,99.092 50.052,99.429 50.933 C 99.607 51.394,99.364 51.632,98.536 51.807 C 96.882 52.157,96.193 52.625,96.256 53.355 C 96.286 53.710,96.151 54.000,95.956 54.000 C 95.760 54.000,95.600 54.270,95.600 54.600 C 95.600 54.930,95.375 55.221,95.100 55.246 C 94.825 55.272,94.420 55.334,94.200 55.385 C 93.980 55.436,93.556 55.506,93.257 55.539 C 92.948 55.574,92.814 55.859,92.945 56.200 C 93.071 56.530,93.001 56.800,92.787 56.800 C 92.574 56.800,92.400 57.065,92.400 57.389 C 92.400 57.717,91.825 58.126,91.100 58.314 C 90.385 58.499,89.791 58.819,89.780 59.025 C 89.696 60.627,88.987 61.392,87.730 61.237 C 87.321 61.186,86.715 61.790,86.562 62.400 C 86.534 62.510,86.375 63.182,86.207 63.894 C 86.040 64.605,85.748 65.092,85.560 64.975 C 85.091 64.685,83.600 65.523,83.600 66.076 C 83.600 66.364,83.856 66.324,84.320 65.962 C 84.715 65.653,84.614 65.806,84.094 66.302 C 83.421 66.945,83.143 67.664,83.128 68.802 C 83.112 69.948,82.935 70.400,82.504 70.400 C 82.014 70.400,81.995 70.288,82.400 69.800 C 82.759 69.368,82.769 69.200,82.436 69.200 C 82.183 69.200,81.871 69.470,81.745 69.800 C 81.618 70.130,81.174 70.400,80.757 70.400 C 80.142 70.400,80.000 70.696,80.000 71.976 C 80.000 73.508,79.958 73.555,78.500 73.676 C 77.081 73.793,76.993 73.881,76.876 75.300 C 76.755 76.766,76.136 77.137,74.300 76.847 C 74.135 76.821,73.973 77.025,73.939 77.300 C 73.906 77.575,73.836 77.980,73.785 78.200 C 73.734 78.420,73.672 78.915,73.646 79.300 C 73.621 79.685,73.404 80.000,73.164 80.000 C 72.924 80.000,72.429 80.323,72.064 80.719 C 71.699 81.114,71.580 81.159,71.800 80.819 C 72.150 80.277,72.112 80.269,71.491 80.756 C 71.072 81.085,70.874 81.603,71.007 82.023 C 71.131 82.413,71.045 82.848,70.816 82.990 C 70.587 83.131,70.400 83.867,70.400 84.624 C 70.400 85.864,70.290 86.000,69.280 86.000 C 67.856 86.000,67.200 86.659,67.200 88.090 C 67.200 89.024,66.993 89.261,66.006 89.459 C 65.350 89.590,64.911 89.855,65.030 90.049 C 65.150 90.242,65.049 90.400,64.806 90.400 C 64.563 90.400,64.394 90.625,64.430 90.900 C 64.466 91.175,64.473 92.334,64.447 93.476 L 64.400 95.552 62.900 95.676 L 61.400 95.800 61.282 98.700 C 61.167 101.555,61.148 101.600,60.082 101.606 C 58.976 101.612,57.905 102.087,57.966 102.545 C 58.202 104.312,57.925 105.132,57.012 105.361 C 55.678 105.696,55.215 106.704,54.925 109.902 C 54.779 111.516,54.464 112.728,54.140 112.920 C 53.843 113.096,53.600 113.433,53.600 113.669 C 53.600 113.944,53.816 113.919,54.200 113.600 C 54.693 113.191,54.800 113.222,54.800 113.776 C 54.800 114.190,54.530 114.411,54.100 114.348 C 52.206 114.073,51.730 114.682,51.639 117.498 C 51.591 118.974,51.507 120.227,51.452 120.282 C 51.358 120.375,49.779 120.703,49.100 120.770 C 48.935 120.787,48.821 120.935,48.847 121.100 C 49.209 123.390,48.718 127.200,48.062 127.200 C 46.519 127.200,45.925 128.554,45.656 132.680 C 45.427 136.179,45.322 136.587,44.670 136.476 C 43.739 136.317,42.701 137.165,42.969 137.864 C 43.082 138.159,42.993 138.400,42.770 138.400 C 42.547 138.400,42.394 138.625,42.430 138.900 C 42.797 141.727,42.332 149.149,41.800 148.945 C 41.470 148.818,41.200 148.908,41.200 149.145 C 41.200 149.382,40.901 149.460,40.534 149.319 C 40.087 149.148,39.964 149.217,40.158 149.532 C 40.317 149.789,40.287 150.000,40.090 150.000 C 39.894 150.000,39.705 150.225,39.670 150.500 C 39.636 150.775,39.531 151.450,39.437 152.000 C 39.343 152.550,39.252 155.757,39.233 159.127 C 39.201 165.006,39.169 165.244,38.422 165.007 C 37.576 164.738,36.122 166.426,36.572 167.155 C 36.705 167.369,36.638 167.653,36.424 167.785 C 36.209 167.918,36.051 168.515,36.071 169.113 C 36.091 169.711,36.059 181.720,35.999 195.800 L 35.890 221.400 34.745 222.474 C 34.115 223.065,33.597 223.425,33.594 223.274 C 33.591 223.124,33.430 223.249,33.238 223.553 C 33.045 223.856,32.463 224.148,31.944 224.201 C 30.396 224.360,30.343 224.384,30.600 224.800 C 30.736 225.020,30.636 225.200,30.377 225.200 C 30.104 225.200,29.994 225.535,30.116 226.000 C 30.318 226.771,29.722 227.027,28.153 226.842 C 27.642 226.782,26.742 227.747,26.833 228.258 C 27.074 229.597,26.753 230.313,26.000 230.116 C 25.535 229.994,25.200 230.104,25.200 230.377 C 25.200 230.636,25.020 230.736,24.800 230.600 C 24.580 230.464,24.373 230.588,24.339 230.876 C 24.306 231.164,24.236 231.580,24.185 231.800 C 24.134 232.020,24.072 232.425,24.046 232.700 C 24.021 232.975,23.722 233.200,23.382 233.200 C 22.160 233.200,20.848 235.048,20.567 237.163 C 20.316 239.053,20.217 239.200,19.197 239.200 C 17.875 239.200,17.316 239.796,17.135 241.400 C 17.057 242.095,16.790 242.558,16.500 242.500 C 15.968 242.394,14.368 243.796,14.447 244.300 C 14.473 244.465,14.473 245.534,14.447 246.676 L 14.400 248.752 12.900 248.876 L 11.400 249.000 11.282 251.900 C 11.169 254.709,11.024 254.990,9.764 254.845 C 9.248 254.785,7.939 256.148,8.031 256.650 C 8.317 258.216,7.928 261.600,7.462 261.600 C 6.875 261.600,5.600 262.847,5.600 263.420 C 5.600 263.617,5.880 263.378,6.223 262.889 C 6.565 262.400,7.015 262.000,7.223 262.000 C 7.430 262.000,7.240 262.360,6.800 262.800 C 6.360 263.240,6.000 263.791,6.000 264.024 C 6.000 264.257,5.839 264.348,5.642 264.226 C 5.051 263.861,4.906 264.786,4.829 269.400 C 4.789 271.820,4.585 273.860,4.376 273.934 C 4.166 274.008,4.114 274.261,4.259 274.496 C 4.408 274.736,4.337 274.808,4.098 274.661 C 3.557 274.326,2.400 274.756,2.400 275.292 C 2.400 275.515,2.699 275.451,3.064 275.149 C 3.670 274.648,3.681 274.677,3.184 275.474 C 2.885 275.955,2.516 276.272,2.366 276.179 C 1.673 275.751,1.416 305.654,2.085 308.800 C 2.202 309.350,2.321 309.954,2.349 310.143 C 2.377 310.331,2.670 310.382,3.000 310.255 C 3.330 310.129,3.600 310.199,3.600 310.413 C 3.600 310.626,3.870 310.800,4.200 310.800 C 4.694 310.800,4.805 311.558,4.831 315.100 C 4.847 317.465,4.948 319.760,5.054 320.200 C 5.160 320.640,5.261 321.270,5.278 321.600 C 5.323 322.466,6.050 323.266,6.600 323.055 C 7.570 322.683,7.954 323.492,8.038 326.086 C 8.141 329.266,8.251 329.488,9.801 329.664 C 10.956 329.795,11.004 329.880,11.104 332.000 C 11.277 335.685,11.427 336.000,13.008 336.000 L 14.400 336.000 14.450 338.400 C 14.478 339.720,14.523 341.010,14.550 341.266 C 14.578 341.523,15.137 341.805,15.793 341.892 C 17.263 342.089,17.144 341.942,17.264 343.715 C 17.321 344.568,17.573 345.200,17.855 345.200 C 18.125 345.200,18.460 345.560,18.600 346.000 C 18.740 346.441,19.202 346.987,19.627 347.214 C 20.052 347.442,20.400 348.042,20.400 348.547 C 20.400 349.053,20.535 349.602,20.700 349.767 C 20.865 349.932,21.000 350.260,21.000 350.495 C 21.000 350.731,21.298 350.967,21.662 351.021 C 22.954 351.211,23.723 351.914,23.840 353.014 C 23.975 354.274,24.683 354.880,25.666 354.575 C 26.482 354.321,26.750 354.714,26.875 356.345 C 26.927 357.035,27.067 357.621,27.185 357.646 C 27.303 357.671,27.916 357.752,28.546 357.825 C 29.950 357.989,29.913 357.952,30.104 359.384 C 30.238 360.380,30.465 360.578,31.631 360.711 C 33.283 360.899,33.100 360.714,33.294 362.400 C 33.390 363.237,33.685 363.822,34.027 363.854 C 34.342 363.883,35.066 363.928,35.636 363.954 C 36.313 363.984,36.823 364.331,37.107 364.957 C 37.626 366.095,39.673 367.200,41.261 367.200 C 42.296 367.200,42.400 367.328,42.400 368.600 C 42.400 369.370,42.580 370.023,42.800 370.050 C 43.020 370.078,43.380 370.145,43.600 370.200 C 43.820 370.255,44.540 370.322,45.200 370.350 C 45.973 370.382,46.400 370.612,46.400 370.995 C 46.400 371.880,49.304 373.548,51.063 373.672 C 52.029 373.740,52.929 374.118,53.486 374.690 C 54.525 375.758,54.231 375.903,53.031 374.915 C 52.354 374.356,52.368 374.412,53.111 375.215 C 53.924 376.095,54.404 376.215,57.611 376.340 C 61.078 376.475,61.202 376.512,61.250 377.440 C 61.343 379.226,61.399 379.400,61.900 379.450 C 62.175 379.478,64.188 379.523,66.373 379.550 C 70.455 379.601,70.663 379.688,70.829 381.400 C 70.961 382.762,71.386 382.787,94.559 382.787 L 117.431 382.786 117.494 381.193 C 117.546 379.895,117.423 379.600,116.828 379.600 C 115.929 379.600,115.350 378.937,114.988 377.494 C 114.801 376.748,114.371 376.311,113.656 376.140 C 112.138 375.776,109.837 374.567,109.200 373.800 C 108.899 373.438,107.980 372.798,107.156 372.377 C 106.332 371.957,105.549 371.268,105.415 370.846 C 105.281 370.425,104.733 369.969,104.196 369.835 C 103.660 369.700,102.504 368.917,101.627 368.095 C 100.750 367.273,99.294 365.936,98.392 365.124 C 97.490 364.312,95.761 362.512,94.550 361.124 C 93.339 359.736,91.820 358.020,91.174 357.311 C 90.528 356.602,90.000 355.760,90.000 355.440 C 90.000 355.120,89.481 354.440,88.846 353.929 C 88.211 353.418,87.376 352.370,86.991 351.600 C 86.605 350.830,85.784 349.620,85.166 348.911 C 84.157 347.752,83.208 345.428,83.202 344.100 C 83.201 343.825,83.024 343.600,82.809 343.600 C 82.149 343.600,81.218 341.838,80.576 339.373 C 80.240 338.081,79.725 336.748,79.433 336.412 C 78.379 335.197,77.947 333.908,77.376 330.286 C 77.057 328.259,76.415 325.907,75.950 325.060 C 73.761 321.075,73.991 296.103,76.239 293.569 C 76.547 293.222,77.059 291.204,77.377 289.084 C 77.951 285.264,78.457 283.772,79.440 283.000 C 79.721 282.780,80.247 281.430,80.609 280.000 C 80.971 278.570,81.684 276.850,82.194 276.179 C 82.704 275.507,83.351 274.190,83.632 273.251 C 83.913 272.313,84.541 271.233,85.027 270.850 C 85.513 270.468,86.302 269.246,86.780 268.134 C 87.258 267.023,88.178 265.723,88.825 265.245 C 89.471 264.767,90.000 264.106,90.000 263.777 C 90.000 263.203,91.211 261.731,93.800 259.159 C 94.460 258.504,95.744 257.222,96.653 256.312 C 98.491 254.471,101.493 253.255,101.857 254.204 C 101.970 254.498,101.688 255.112,101.231 255.569 C 100.774 256.026,100.400 256.844,100.400 257.386 C 100.400 257.928,99.883 258.963,99.251 259.686 C 98.619 260.409,97.967 261.630,97.803 262.400 C 97.413 264.223,96.559 265.871,95.777 266.309 C 95.432 266.502,94.880 267.856,94.541 269.340 C 94.182 270.914,93.515 272.515,92.927 273.214 C 92.182 274.099,91.832 275.145,91.563 277.286 C 91.114 280.860,90.990 281.309,89.755 283.846 C 87.470 288.541,87.468 318.945,89.753 321.572 C 90.547 322.485,91.122 324.578,91.547 328.096 C 91.831 330.440,92.159 331.474,92.902 332.357 C 93.442 332.998,94.190 334.744,94.565 336.237 C 94.984 337.905,95.602 339.281,96.168 339.805 C 96.674 340.275,97.411 341.636,97.804 342.829 C 98.198 344.023,98.923 345.378,99.415 345.839 C 99.907 346.301,100.436 347.252,100.590 347.953 C 100.744 348.654,101.302 349.510,101.830 349.856 C 102.358 350.202,103.322 351.411,103.973 352.543 C 104.623 353.674,105.538 354.924,106.005 355.320 C 106.473 355.716,107.038 356.563,107.261 357.203 C 107.484 357.844,108.019 358.479,108.448 358.615 C 108.878 358.752,109.667 359.555,110.200 360.400 C 110.733 361.245,111.492 362.040,111.885 362.167 C 112.278 362.294,112.908 362.940,113.283 363.603 C 113.659 364.265,114.427 364.982,114.988 365.196 C 115.550 365.409,116.212 366.029,116.460 366.572 C 116.708 367.116,117.412 367.735,118.026 367.949 C 118.639 368.163,119.445 368.803,119.818 369.371 C 120.190 369.940,121.288 370.755,122.257 371.184 C 123.226 371.613,124.621 372.602,125.357 373.382 C 126.093 374.162,127.065 374.800,127.518 374.800 C 127.971 374.800,128.670 375.211,129.071 375.713 C 129.472 376.216,130.692 376.965,131.783 377.378 C 132.874 377.791,134.206 378.569,134.743 379.107 C 135.294 379.658,136.841 380.395,138.290 380.797 C 140.181 381.321,141.195 381.874,142.130 382.892 C 143.062 383.908,143.985 384.412,145.600 384.791 C 149.002 385.587,150.488 387.332,149.029 388.819 C 148.771 389.083,148.759 389.227,149.000 389.181 C 150.744 388.850,151.847 389.260,152.278 390.400 C 152.527 391.060,152.954 391.600,153.227 391.600 C 153.543 391.600,153.446 391.277,152.962 390.714 C 152.378 390.035,152.506 390.078,153.514 390.900 L 154.828 391.972 174.986 391.993 C 188.746 392.007,195.227 391.879,195.406 391.590 C 195.550 391.358,196.001 391.273,196.409 391.403 C 197.209 391.657,198.239 390.310,197.795 389.592 C 197.644 389.348,198.887 389.187,201.076 389.167 C 203.014 389.148,205.035 389.086,205.566 389.029 C 206.686 388.907,208.130 387.316,207.830 386.534 C 207.658 386.086,244.325 385.555,246.560 385.973 C 246.758 386.010,247.208 385.914,247.560 385.759 C 247.912 385.605,248.439 385.430,248.731 385.370 C 249.966 385.118,250.433 384.764,250.796 383.810 L 251.180 382.800 256.990 382.750 C 260.186 382.723,263.025 382.678,263.300 382.650 C 263.575 382.623,263.890 381.970,264.000 381.200 L 264.200 379.800 269.336 379.600 C 274.694 379.391,276.000 378.873,276.000 376.956 C 276.000 376.539,276.701 376.387,278.800 376.350 C 283.037 376.274,282.620 376.480,282.750 374.400 C 282.795 373.683,283.100 373.595,285.700 373.553 C 290.046 373.482,290.908 373.210,291.572 371.700 C 291.996 370.737,292.410 370.392,293.172 370.370 C 296.135 370.285,298.188 369.222,297.793 367.978 C 297.573 367.286,297.745 367.200,299.349 367.200 C 300.341 367.200,301.266 367.017,301.404 366.793 C 301.542 366.570,301.819 366.488,302.019 366.612 C 302.505 366.912,304.000 366.090,304.000 365.524 C 304.000 365.278,303.607 365.419,303.127 365.838 L 302.255 366.600 303.027 365.541 C 303.452 364.959,303.935 364.565,304.100 364.665 C 304.265 364.765,304.400 364.657,304.400 364.424 C 304.400 364.191,304.985 363.997,305.700 363.994 C 307.375 363.986,307.772 363.668,307.940 362.200 C 308.112 360.703,307.814 360.863,310.623 360.762 C 313.363 360.663,314.000 360.255,314.000 358.600 C 314.000 358.237,314.371 358.000,314.939 358.000 C 316.191 358.000,318.214 356.960,319.090 355.864 C 319.481 355.377,320.514 354.802,321.387 354.589 C 322.691 354.269,323.039 353.972,323.339 352.921 C 323.636 351.879,323.934 351.621,324.952 351.521 C 326.076 351.412,326.212 351.253,326.323 349.923 C 326.438 348.535,326.535 348.438,327.923 348.323 C 329.315 348.207,329.407 348.114,329.524 346.700 L 329.648 345.200 331.660 345.200 C 333.083 345.200,333.866 344.990,334.336 344.481 C 334.701 344.086,334.820 344.041,334.600 344.381 C 334.250 344.923,334.288 344.931,334.909 344.444 C 335.315 344.125,335.525 343.594,335.400 343.200 C 335.152 342.419,336.151 341.399,336.782 341.789 C 337.192 342.042,339.095 340.967,338.900 340.592 C 338.421 339.671,339.999 338.450,341.300 338.734 C 341.465 338.770,341.627 338.575,341.661 338.300 C 341.694 338.025,341.764 337.620,341.815 337.400 C 341.866 337.180,341.928 336.691,341.954 336.313 C 341.983 335.871,342.217 335.708,342.605 335.857 C 342.938 335.985,343.433 335.905,343.705 335.679 C 343.977 335.453,344.376 335.298,344.591 335.334 C 344.807 335.370,345.023 334.884,345.071 334.254 C 345.178 332.861,345.212 332.823,346.464 332.720 C 347.618 332.624,348.151 332.130,348.319 331.000 C 348.529 329.590,348.784 329.143,349.224 329.415 C 349.460 329.561,349.925 329.347,350.256 328.940 C 350.588 328.533,350.728 328.453,350.568 328.762 C 350.374 329.136,350.434 329.226,350.749 329.032 C 351.009 328.871,351.181 328.528,351.132 328.270 C 350.976 327.448,351.635 326.000,352.165 326.000 C 352.446 326.000,353.019 325.595,353.438 325.100 C 354.199 324.201,354.199 324.201,353.369 324.900 C 352.168 325.911,351.876 325.760,352.914 324.667 C 353.401 324.153,353.980 323.748,354.200 323.767 C 354.420 323.785,354.655 323.045,354.722 322.123 C 354.840 320.504,354.895 320.441,356.322 320.323 C 357.711 320.207,357.807 320.111,357.923 318.724 C 358.034 317.387,358.166 317.236,359.323 317.124 C 360.484 317.011,360.611 316.863,360.724 315.500 C 360.842 314.077,361.248 313.734,362.542 313.967 C 363.053 314.058,364.018 313.158,363.958 312.647 C 363.611 309.702,364.029 308.000,365.100 307.994 C 365.998 307.989,367.982 307.227,367.151 307.206 C 366.202 307.183,367.533 304.675,368.552 304.566 C 370.160 304.395,370.308 304.034,370.372 300.124 C 370.399 298.482,370.430 298.446,371.900 298.324 C 373.356 298.204,373.404 298.150,373.523 296.500 C 373.604 295.377,373.834 294.800,374.200 294.800 C 374.789 294.800,376.011 293.301,375.984 292.611 C 375.975 292.385,375.699 292.695,375.371 293.300 C 375.043 293.905,374.593 294.400,374.371 294.400 C 373.977 294.400,374.283 293.932,375.700 292.371 C 376.085 291.947,376.400 291.072,376.400 290.427 C 376.400 289.334,376.872 288.900,378.200 288.771 C 378.910 288.702,379.631 287.895,379.569 287.239 C 379.268 284.077,379.595 282.865,380.824 282.595 C 382.311 282.268,382.800 281.173,382.800 278.174 C 382.800 276.557,382.946 276.000,383.371 276.000 C 384.071 276.000,385.673 274.041,385.371 273.553 C 385.251 273.359,385.343 273.200,385.576 273.200 C 385.809 273.200,385.979 273.065,385.953 272.900 C 385.356 269.122,387.026 265.159,388.566 266.699 C 388.695 266.828,388.831 266.498,388.868 265.967 C 388.906 265.435,388.977 264.730,389.026 264.400 C 389.075 264.070,389.134 262.394,389.157 260.676 C 389.187 258.524,389.336 257.637,389.638 257.824 C 391.258 258.825,391.912 257.259,391.963 252.256 L 392.012 247.400 393.606 245.886 L 395.200 244.371 395.200 238.354 L 395.200 232.337 396.795 230.805 L 398.390 229.272 398.390 196.636 C 398.391 177.701,398.241 164.000,398.033 164.000 C 397.836 164.000,397.761 163.672,397.865 163.272 C 398.092 162.407,397.049 161.419,396.238 161.730 C 395.363 162.066,395.242 161.296,395.179 155.011 C 395.119 149.087,394.412 146.800,392.641 146.800 C 392.432 146.800,392.683 147.250,393.200 147.800 C 393.717 148.350,393.956 148.800,393.732 148.800 C 392.490 148.800,392.080 147.361,392.021 142.800 C 391.942 136.672,391.517 135.262,390.024 136.185 C 389.391 136.576,389.236 135.847,389.170 132.166 C 389.135 130.205,388.995 128.420,388.859 128.200 C 388.723 127.980,388.609 127.624,388.606 127.409 C 388.603 127.193,388.084 126.977,387.454 126.929 C 385.992 126.817,386.121 127.118,385.918 123.339 C 385.730 119.839,384.851 117.741,383.749 118.164 C 383.424 118.289,383.259 118.228,383.382 118.030 C 383.505 117.831,383.428 117.608,383.212 117.534 C 382.996 117.460,382.786 116.434,382.745 115.253 C 382.665 112.957,381.309 110.919,380.156 111.362 C 379.651 111.555,379.296 108.610,379.570 106.500 C 379.606 106.225,379.437 106.000,379.194 106.000 C 378.951 106.000,378.852 105.840,378.973 105.644 C 379.094 105.448,378.565 105.170,377.796 105.026 C 376.424 104.768,376.400 104.729,376.400 102.782 C 376.400 101.692,376.240 100.800,376.044 100.800 C 375.849 100.800,375.714 100.485,375.744 100.100 C 375.775 99.715,375.530 99.400,375.200 99.400 C 374.293 99.400,373.690 98.662,373.539 97.366 C 373.376 95.972,372.962 95.614,371.500 95.606 C 370.460 95.600,370.398 95.496,370.367 93.700 C 370.299 89.847,370.177 89.530,368.700 89.366 C 368.205 89.312,367.665 89.252,367.500 89.233 C 367.335 89.215,367.200 88.553,367.200 87.763 C 367.200 86.679,367.010 86.275,366.428 86.123 C 366.003 86.012,365.559 85.669,365.440 85.361 C 365.322 85.052,365.017 84.800,364.764 84.800 C 364.431 84.800,364.441 84.968,364.800 85.400 C 365.205 85.888,365.186 86.000,364.701 86.000 C 364.259 86.000,364.083 85.458,364.021 83.900 C 363.905 80.957,363.914 81.009,363.433 80.560 C 362.919 80.079,362.659 80.000,361.600 80.000 C 360.933 80.000,360.800 79.733,360.800 78.400 C 360.800 76.838,360.767 76.800,359.400 76.800 C 358.107 76.800,358.000 76.707,358.000 75.584 C 358.000 74.702,357.561 73.926,356.400 72.753 C 355.520 71.864,354.800 70.971,354.800 70.768 C 354.800 70.566,354.637 70.400,354.437 70.400 C 354.238 70.400,354.176 70.012,354.300 69.537 C 354.454 68.951,354.379 68.766,354.068 68.958 C 353.760 69.148,353.697 69.014,353.874 68.551 C 354.079 68.016,353.984 67.921,353.449 68.126 C 352.986 68.303,352.852 68.240,353.042 67.932 C 353.233 67.623,353.054 67.545,352.490 67.692 C 351.777 67.879,351.617 67.684,351.392 66.354 C 351.247 65.497,350.965 64.898,350.765 65.022 C 350.564 65.146,350.400 65.095,350.400 64.909 C 350.400 64.723,350.020 64.542,349.555 64.507 C 348.477 64.425,348.496 64.451,348.310 62.824 C 348.169 61.590,348.010 61.431,346.776 61.290 C 345.111 61.100,345.246 61.232,345.127 59.679 C 345.031 58.417,344.916 58.338,343.000 58.241 C 342.423 58.211,342.163 57.871,342.066 57.019 C 341.914 55.682,340.926 54.728,339.932 54.955 C 339.344 55.090,338.787 54.124,338.633 52.700 C 338.615 52.535,338.463 52.404,338.296 52.408 C 337.437 52.431,335.600 51.089,335.600 50.439 C 335.600 49.585,334.704 48.718,333.930 48.823 C 332.814 48.974,332.478 48.767,332.229 47.774 C 331.928 46.573,329.951 45.600,327.813 45.600 C 326.435 45.600,326.400 45.561,326.400 44.024 C 326.400 42.501,326.352 42.444,324.942 42.324 C 323.668 42.216,323.470 42.056,323.365 41.056 C 323.206 39.533,323.177 39.516,320.328 39.228 C 320.178 39.212,319.994 38.795,319.918 38.300 C 319.843 37.805,319.560 37.445,319.291 37.500 C 319.021 37.555,318.845 37.391,318.900 37.135 C 319.021 36.573,317.535 36.094,315.500 36.040 C 314.122 36.003,314.000 35.906,314.000 34.843 C 314.000 33.437,313.476 33.200,310.367 33.200 C 308.130 33.200,308.000 33.147,308.000 32.233 C 308.000 30.445,307.601 30.000,306.000 30.000 C 304.518 30.000,303.685 29.233,304.222 28.364 C 304.346 28.164,304.246 28.000,304.000 28.000 C 303.754 28.000,303.683 27.789,303.842 27.532 C 304.036 27.217,303.913 27.148,303.466 27.319 C 303.100 27.460,302.800 27.429,302.800 27.251 C 302.800 27.073,301.863 26.894,300.717 26.853 C 298.650 26.780,297.899 26.328,298.264 25.377 C 298.628 24.429,296.500 23.709,293.113 23.633 C 291.991 23.608,291.679 23.459,291.846 23.024 C 292.154 22.221,291.435 21.078,290.544 20.956 C 290.135 20.900,289.440 20.766,289.000 20.658 C 288.560 20.550,286.985 20.447,285.500 20.431 L 282.800 20.400 282.800 19.043 C 282.800 17.464,282.600 17.359,279.400 17.245 C 276.401 17.139,275.485 16.875,275.747 16.193 C 275.860 15.899,275.648 15.420,275.276 15.129 C 274.694 14.673,274.655 14.686,275.000 15.219 C 275.281 15.654,275.214 15.638,274.773 15.165 C 274.261 14.615,273.272 14.480,269.373 14.426 C 264.156 14.354,264.121 14.342,263.931 12.600 L 263.800 11.400 257.609 11.275 C 250.733 11.137,251.100 11.219,251.100 9.809 C 251.100 9.246,250.915 8.671,250.688 8.531 C 250.427 8.369,250.400 8.482,250.615 8.838 C 250.880 9.277,250.792 9.269,250.215 8.800 C 249.394 8.132,187.432 7.719,185.800 8.370 M346.805 72.805 C 347.248 73.248,348.330 73.899,349.209 74.250 C 350.236 74.661,350.888 75.213,351.034 75.795 C 351.159 76.292,351.707 76.903,352.252 77.151 C 352.796 77.399,353.518 78.264,353.857 79.074 C 354.195 79.884,354.980 81.021,355.601 81.601 C 356.222 82.181,356.944 83.448,357.205 84.417 C 357.465 85.386,358.088 86.665,358.589 87.260 C 359.090 87.855,359.810 89.608,360.189 91.154 C 360.568 92.701,361.140 94.184,361.461 94.451 C 362.403 95.232,362.771 96.178,363.387 99.395 C 363.709 101.080,364.331 102.894,364.783 103.469 C 365.786 104.745,366.286 106.561,366.635 110.200 C 366.794 111.853,367.317 113.887,367.911 115.163 C 368.594 116.630,369.030 118.499,369.266 120.963 C 370.052 129.190,370.434 131.889,371.054 133.600 C 372.298 137.035,372.309 147.176,371.072 150.800 C 370.509 152.450,369.923 154.520,369.771 155.400 C 368.508 162.676,358.983 161.655,355.498 153.871 C 355.110 153.006,354.255 151.685,353.597 150.935 C 352.939 150.186,352.400 149.232,352.400 148.817 C 352.400 148.401,351.924 147.495,351.341 146.803 C 350.741 146.090,349.950 144.302,349.514 142.673 C 349.091 141.093,348.425 139.440,348.032 139.000 C 346.952 137.789,346.846 137.512,346.232 134.304 C 345.893 132.531,345.246 130.714,344.632 129.808 C 344.064 128.972,343.600 128.132,343.600 127.942 C 343.600 126.691,342.313 119.375,342.032 119.027 C 341.146 117.930,340.429 114.495,340.019 109.384 C 339.741 105.908,339.241 102.743,338.696 101.000 C 337.392 96.837,337.372 84.711,338.664 81.768 C 339.139 80.686,339.737 78.763,339.994 77.495 C 340.367 75.646,340.672 75.079,341.530 74.632 C 342.118 74.326,343.140 73.609,343.800 73.038 C 345.245 71.790,345.750 71.750,346.805 72.805 M356.212 73.521 C 355.943 73.790,354.800 72.792,354.800 72.289 C 354.800 72.062,355.161 72.203,355.602 72.602 C 356.044 73.002,356.318 73.415,356.212 73.521 M285.872 81.904 C 286.492 82.400,287.450 82.983,288.000 83.197 C 290.064 84.002,291.012 84.646,291.390 85.499 C 291.605 85.982,292.264 86.578,292.856 86.823 C 293.447 87.068,294.138 87.768,294.391 88.378 C 294.643 88.988,295.376 89.875,296.018 90.350 C 296.661 90.825,297.482 91.785,297.843 92.483 C 298.204 93.181,298.818 94.033,299.207 94.376 C 299.596 94.719,300.234 95.900,300.625 97.000 C 301.016 98.100,301.824 99.465,302.421 100.034 C 303.131 100.712,303.665 101.814,303.969 103.229 C 304.224 104.420,304.852 105.841,305.368 106.395 C 306.379 107.481,306.992 109.164,307.409 112.000 C 307.554 112.990,308.107 114.439,308.636 115.221 C 309.367 116.299,309.740 117.709,310.183 121.070 C 310.550 123.854,311.060 126.000,311.556 126.849 C 313.099 129.489,313.964 144.442,313.255 156.231 C 312.878 162.512,312.675 163.440,311.030 166.400 C 310.725 166.950,310.281 168.465,310.045 169.767 C 309.808 171.068,309.271 172.508,308.851 172.967 C 308.432 173.425,307.625 174.726,307.058 175.859 C 306.419 177.136,305.492 178.249,304.614 178.791 C 303.836 179.272,303.200 179.833,303.200 180.039 C 303.200 182.560,292.206 183.061,289.634 180.657 C 289.065 180.125,288.180 179.563,287.667 179.408 C 285.826 178.850,278.308 170.629,277.522 168.314 C 277.277 167.591,276.585 166.550,275.984 166.000 C 275.329 165.401,274.685 164.199,274.378 163.000 C 274.096 161.900,273.371 160.426,272.766 159.724 C 272.085 158.934,271.484 157.568,271.187 156.136 C 270.923 154.865,270.294 153.279,269.790 152.612 C 268.830 151.343,268.251 149.492,267.811 146.292 C 267.667 145.243,267.107 143.419,266.566 142.238 C 265.791 140.546,265.463 138.792,265.015 133.946 C 264.683 130.358,264.155 127.051,263.746 126.000 C 262.730 123.386,262.664 108.012,263.662 106.193 C 264.026 105.530,264.528 103.190,264.777 100.993 C 265.391 95.580,265.522 95.027,266.549 93.513 C 267.039 92.791,267.681 91.338,267.976 90.285 C 268.302 89.123,268.944 88.022,269.610 87.485 C 270.214 86.998,270.997 86.027,271.350 85.327 C 271.758 84.519,272.505 83.869,273.396 83.547 C 274.168 83.268,274.800 82.797,274.800 82.500 C 274.800 80.639,283.694 80.160,285.872 81.904 M386.272 181.898 C 386.892 182.392,388.089 183.168,388.930 183.622 C 391.503 185.009,391.779 186.159,391.761 195.400 C 391.743 204.344,391.297 207.393,389.804 208.797 C 389.274 209.294,388.723 210.263,388.577 210.950 C 388.289 212.312,386.808 215.200,386.397 215.200 C 386.257 215.200,385.746 215.992,385.263 216.959 C 384.780 217.926,383.966 218.992,383.454 219.328 C 382.942 219.664,382.296 220.486,382.018 221.156 C 381.741 221.825,381.178 222.480,380.767 222.610 C 380.357 222.741,379.641 223.381,379.177 224.032 C 378.713 224.684,377.736 225.467,377.005 225.772 C 376.275 226.077,375.557 226.706,375.409 227.170 C 375.262 227.634,374.390 228.395,373.471 228.861 C 372.552 229.326,371.373 230.131,370.851 230.649 C 370.328 231.166,369.270 231.764,368.497 231.977 C 367.725 232.190,366.398 232.847,365.549 233.436 C 364.699 234.024,362.878 234.758,361.502 235.066 C 360.126 235.374,357.840 236.205,356.421 236.913 L 353.843 238.200 344.021 238.339 C 333.288 238.491,330.295 238.173,328.020 236.642 C 327.239 236.117,325.621 235.461,324.424 235.185 C 323.227 234.909,321.840 234.277,321.343 233.779 C 320.845 233.282,319.793 232.662,319.003 232.401 C 318.214 232.141,316.990 231.338,316.284 230.618 C 315.578 229.898,314.428 229.016,313.728 228.659 C 313.029 228.301,312.340 227.640,312.197 227.189 C 312.054 226.739,311.231 225.924,310.368 225.380 C 309.506 224.835,308.800 224.128,308.800 223.807 C 308.800 223.486,308.263 222.827,307.606 222.341 C 306.924 221.837,306.128 220.674,305.749 219.629 C 305.384 218.623,304.673 217.440,304.168 217.000 C 302.387 215.447,301.455 209.888,302.390 206.400 C 303.085 203.807,308.430 198.800,310.504 198.800 C 310.782 198.800,311.188 198.395,311.405 197.900 C 311.671 197.294,312.511 196.772,313.974 196.304 C 315.170 195.920,316.640 195.137,317.240 194.562 C 317.971 193.861,319.189 193.337,320.934 192.971 C 322.648 192.612,323.874 192.090,324.519 191.445 C 325.172 190.792,326.151 190.379,327.450 190.211 C 331.945 189.627,332.510 189.480,333.140 188.728 C 334.232 187.424,335.131 187.132,339.090 186.792 C 341.976 186.545,343.081 186.282,343.738 185.684 C 345.349 184.219,346.432 183.952,352.281 183.582 C 356.799 183.295,358.292 183.060,358.862 182.544 C 361.095 180.523,383.871 179.987,386.272 181.898 M109.664 207.273 L 110.691 207.947 108.845 209.908 C 106.605 212.290,106.046 212.603,103.048 213.157 C 101.743 213.398,99.930 214.101,98.970 214.737 C 98.019 215.367,96.107 216.114,94.721 216.398 C 93.201 216.708,91.803 217.280,91.200 217.836 C 90.650 218.343,89.151 219.031,87.868 219.365 C 86.509 219.719,84.973 220.468,84.185 221.159 C 83.308 221.929,82.186 222.443,80.989 222.623 C 79.974 222.775,78.654 223.311,78.057 223.814 C 77.459 224.317,76.014 225.041,74.845 225.423 C 73.676 225.806,72.177 226.614,71.513 227.220 C 70.850 227.826,69.511 228.545,68.537 228.818 C 67.564 229.090,66.579 229.666,66.348 230.098 C 66.116 230.530,64.807 231.391,63.437 232.012 C 62.067 232.633,60.703 233.435,60.405 233.794 C 60.107 234.153,59.279 234.691,58.564 234.989 C 57.849 235.288,57.064 235.907,56.819 236.365 C 56.574 236.823,55.614 237.582,54.687 238.052 C 53.759 238.521,52.324 239.512,51.499 240.253 C 50.673 240.994,49.825 241.600,49.614 241.600 C 49.403 241.600,48.459 242.323,47.515 243.207 C 46.572 244.091,45.170 245.351,44.400 246.008 C 39.487 250.196,30.447 258.752,22.164 267.053 C 17.744 271.482,13.755 275.224,13.300 275.368 C 12.844 275.513,12.173 276.086,11.809 276.642 C 10.925 277.991,10.130 277.340,9.776 274.977 C 9.547 273.453,9.651 273.055,10.556 271.979 C 11.130 271.297,11.600 270.491,11.600 270.189 C 11.600 268.481,12.606 265.450,13.580 264.225 C 14.197 263.449,14.899 262.031,15.140 261.074 C 15.381 260.117,16.213 258.279,16.989 256.990 C 17.765 255.702,18.400 254.425,18.400 254.154 C 18.400 253.883,18.828 253.153,19.351 252.531 C 19.874 251.909,20.763 250.445,21.326 249.277 C 21.889 248.110,22.797 246.803,23.344 246.373 C 23.891 245.942,24.457 245.051,24.602 244.392 C 24.747 243.733,25.191 243.019,25.589 242.806 C 25.987 242.593,26.814 241.565,27.425 240.521 C 28.036 239.478,29.156 237.989,29.913 237.212 C 40.415 226.442,41.727 225.204,43.734 224.182 C 44.578 223.752,45.428 223.107,45.623 222.748 C 45.817 222.390,46.657 221.822,47.488 221.488 C 48.320 221.153,49.384 220.434,49.853 219.891 C 50.322 219.347,51.582 218.579,52.653 218.184 C 53.724 217.790,54.985 217.124,55.456 216.705 C 55.926 216.286,57.383 215.610,58.693 215.203 C 60.002 214.795,61.719 214.024,62.508 213.489 C 63.296 212.953,65.058 212.296,66.423 212.027 C 67.788 211.759,69.916 211.017,71.152 210.379 C 72.983 209.433,74.253 209.136,78.000 208.775 C 80.530 208.532,83.860 207.998,85.400 207.589 C 89.441 206.514,89.712 206.495,99.619 206.550 C 107.343 206.593,108.785 206.697,109.664 207.273 M193.200 220.214 C 195.290 220.522,198.935 220.956,201.300 221.177 C 208.647 221.865,210.531 223.785,205.469 225.427 C 204.331 225.797,202.626 226.602,201.679 227.218 C 200.733 227.833,199.203 228.449,198.279 228.587 C 194.778 229.109,192.843 229.689,192.186 230.415 C 191.785 230.859,190.256 231.436,188.453 231.825 C 186.774 232.187,184.736 232.910,183.924 233.431 C 183.112 233.953,181.173 234.670,179.614 235.024 C 177.961 235.400,176.305 236.068,175.641 236.627 C 175.014 237.154,173.380 237.847,172.010 238.167 C 170.639 238.487,168.818 239.233,167.963 239.826 C 167.108 240.418,165.395 241.139,164.157 241.427 C 162.918 241.714,161.521 242.308,161.052 242.746 C 160.584 243.184,159.120 243.937,157.800 244.420 C 156.480 244.903,154.950 245.705,154.400 246.201 C 153.850 246.697,152.680 247.327,151.800 247.600 C 150.920 247.873,149.750 248.498,149.200 248.988 C 148.650 249.479,147.399 250.190,146.420 250.569 C 145.441 250.948,144.049 251.776,143.327 252.411 C 142.604 253.045,141.280 253.784,140.383 254.052 C 139.486 254.321,138.577 254.869,138.362 255.271 C 138.147 255.673,137.123 256.433,136.086 256.961 C 135.049 257.490,133.666 258.384,133.013 258.948 C 132.361 259.513,131.319 260.086,130.700 260.222 C 130.080 260.358,129.282 260.913,128.927 261.455 C 128.572 261.997,127.723 262.726,127.041 263.075 C 126.358 263.423,125.208 264.312,124.484 265.051 C 123.761 265.789,122.681 266.511,122.084 266.656 C 121.488 266.800,120.406 267.522,119.681 268.259 C 118.955 268.997,118.104 269.600,117.790 269.600 C 117.476 269.600,116.916 270.061,116.547 270.625 C 116.178 271.188,115.026 272.080,113.988 272.606 C 112.949 273.132,112.010 273.798,111.899 274.086 C 111.789 274.374,110.885 275.015,109.890 275.512 C 108.896 276.009,107.784 276.870,107.420 277.426 C 107.056 277.982,106.272 278.652,105.679 278.916 C 105.085 279.180,104.039 279.937,103.353 280.598 C 102.667 281.259,101.163 282.520,100.011 283.400 C 98.859 284.280,97.350 285.464,96.658 286.031 C 94.263 287.994,92.183 288.538,91.435 287.397 C 90.555 286.055,90.641 285.083,91.720 284.144 C 92.288 283.651,92.833 282.486,93.141 281.105 C 93.435 279.793,94.038 278.471,94.598 277.911 C 95.123 277.386,95.925 275.963,96.379 274.748 C 96.833 273.533,97.633 272.168,98.156 271.713 C 98.679 271.258,99.407 269.982,99.774 268.878 C 100.141 267.773,100.695 266.773,101.004 266.654 C 101.314 266.535,102.025 265.536,102.583 264.433 C 103.142 263.331,103.945 262.244,104.367 262.017 C 104.790 261.791,105.334 261.006,105.576 260.272 C 105.818 259.539,106.553 258.542,107.208 258.057 C 107.864 257.573,108.400 256.949,108.400 256.672 C 108.400 256.395,109.110 255.365,109.979 254.384 C 115.176 248.511,119.663 243.871,121.633 242.333 C 122.385 241.746,123.961 240.486,125.136 239.533 C 126.310 238.580,127.822 237.495,128.494 237.122 C 129.167 236.749,130.276 235.922,130.958 235.285 C 131.641 234.648,132.830 233.889,133.600 233.599 C 134.370 233.309,135.450 232.675,136.000 232.189 C 136.550 231.703,137.865 231.020,138.922 230.670 C 139.980 230.320,141.152 229.654,141.527 229.191 C 141.946 228.673,143.361 228.040,145.204 227.547 C 146.852 227.106,148.597 226.374,149.082 225.920 C 149.689 225.352,151.040 224.923,153.421 224.541 C 155.591 224.194,157.525 223.609,158.614 222.971 C 160.121 222.087,161.205 221.880,166.874 221.387 C 170.464 221.075,174.225 220.625,175.233 220.386 C 180.012 219.255,186.292 219.195,193.200 220.214 M33.992 221.810 C 33.219 222.741,33.771 222.917,34.598 222.002 C 34.997 221.561,35.138 221.200,34.911 221.200 C 34.684 221.200,34.270 221.474,33.992 221.810 M397.416 230.749 C 397.275 231.195,396.795 231.675,396.349 231.816 C 395.904 231.957,395.618 232.151,395.713 232.246 C 395.808 232.341,396.186 232.303,396.554 232.162 C 397.268 231.888,398.194 230.461,397.869 230.136 C 397.761 230.028,397.557 230.304,397.416 230.749 M19.800 346.000 C 20.198 346.440,20.322 346.800,20.076 346.800 C 19.830 346.800,19.435 346.440,19.200 346.000 C 18.965 345.560,18.840 345.200,18.924 345.200 C 19.008 345.200,19.402 345.560,19.800 346.000 M38.948 365.940 C 38.757 366.222,37.992 365.532,37.549 364.678 C 37.136 363.883,37.185 363.894,38.068 364.800 C 38.604 365.350,39.001 365.863,38.948 365.940 M48.400 371.975 C 48.865 372.421,48.780 372.414,48.022 371.941 C 47.484 371.606,46.968 371.077,46.876 370.766 C 46.741 370.310,46.815 370.317,47.254 370.800 C 47.554 371.130,48.070 371.659,48.400 371.975 M138.400 387.000 C 138.917 387.550,139.373 388.000,139.414 388.000 C 139.455 388.000,139.403 387.550,139.298 387.000 C 139.168 386.319,138.844 386.000,138.284 386.000 C 137.484 386.000,137.487 386.028,138.400 387.000 " stroke="none" fill="#fccc4c" fill-rule="evenodd"></path><path id="path1" d="M343.603 75.715 C 341.979 76.514,341.776 76.774,341.502 78.400 C 340.043 87.065,340.839 109.357,342.761 113.642 C 343.215 114.656,343.876 117.436,344.231 119.822 C 344.644 122.603,345.222 124.822,345.844 126.011 C 346.376 127.030,347.082 129.271,347.411 130.992 C 347.740 132.713,348.411 134.769,348.900 135.561 C 349.390 136.352,350.103 138.228,350.485 139.730 C 350.867 141.234,351.631 142.997,352.186 143.656 C 352.740 144.315,353.480 145.839,353.830 147.044 C 354.188 148.276,354.811 149.446,355.254 149.718 C 355.687 149.983,356.382 150.966,356.799 151.902 C 359.807 158.657,365.127 160.586,367.579 155.810 L 368.600 153.820 368.576 141.810 C 368.552 129.086,368.136 124.071,366.781 120.160 C 366.331 118.862,365.696 115.910,365.369 113.600 C 364.972 110.791,364.439 108.755,363.760 107.453 C 363.201 106.383,362.498 104.223,362.198 102.653 C 361.552 99.278,361.316 98.609,360.182 96.936 C 359.711 96.241,359.122 94.661,358.873 93.424 C 358.625 92.187,357.984 90.596,357.448 89.888 C 356.912 89.179,356.274 87.848,356.029 86.929 C 355.785 86.009,354.972 84.524,354.223 83.627 C 353.474 82.731,352.659 81.384,352.411 80.634 C 352.164 79.884,351.708 79.173,351.398 79.054 C 351.088 78.936,350.390 78.135,349.847 77.275 C 349.199 76.248,348.473 75.634,347.730 75.484 C 347.109 75.359,346.330 75.160,346.000 75.043 C 345.670 74.927,344.591 75.229,343.603 75.715 M276.390 84.103 C 274.584 85.041,273.098 86.090,272.961 86.524 C 272.827 86.944,272.125 87.945,271.401 88.747 C 270.659 89.568,269.719 91.313,269.251 92.740 C 268.793 94.135,268.069 95.844,267.643 96.538 C 265.309 100.334,265.271 133.035,267.595 137.590 C 268.272 138.917,268.537 140.028,269.664 146.245 C 269.867 147.370,270.474 148.887,271.012 149.617 C 271.550 150.346,272.098 151.585,272.229 152.371 C 272.627 154.755,273.261 156.558,273.999 157.400 C 274.385 157.840,275.018 159.190,275.407 160.400 C 275.796 161.610,276.608 163.230,277.211 164.000 C 277.814 164.770,278.590 166.078,278.935 166.906 C 279.281 167.734,279.834 168.515,280.165 168.642 C 280.496 168.769,281.210 169.621,281.752 170.536 C 283.089 172.795,287.397 176.891,289.600 177.999 C 290.590 178.497,291.534 179.132,291.697 179.411 C 292.570 180.902,298.521 180.944,300.236 179.472 C 303.947 176.287,305.391 174.789,306.083 173.410 C 306.527 172.524,307.210 171.440,307.601 171.000 C 308.032 170.515,308.589 168.624,309.017 166.200 C 309.404 164.000,310.066 161.210,310.487 160.000 C 312.136 155.256,312.223 138.022,310.616 134.176 C 310.092 132.923,309.412 128.988,308.581 122.400 C 308.429 121.190,307.888 119.375,307.379 118.367 C 306.870 117.359,306.198 115.175,305.884 113.515 C 305.520 111.586,304.949 110.010,304.303 109.148 C 303.747 108.407,302.986 106.720,302.611 105.400 C 302.237 104.080,301.593 102.635,301.179 102.189 C 300.765 101.742,300.152 100.597,299.815 99.643 C 299.479 98.690,298.683 97.317,298.048 96.593 C 297.412 95.869,296.567 94.541,296.170 93.641 C 295.773 92.742,295.120 91.901,294.718 91.774 C 294.316 91.646,293.633 90.848,293.200 90.000 C 292.767 89.152,292.055 88.344,291.617 88.205 C 291.179 88.066,290.451 87.434,290.000 86.800 C 289.549 86.166,288.779 85.527,288.290 85.380 C 287.800 85.233,286.320 84.614,285.000 84.006 C 281.040 82.180,280.067 82.191,276.390 84.103 M366.693 182.819 C 365.424 183.014,363.619 183.433,362.681 183.752 C 360.420 184.520,359.082 184.728,353.484 185.184 C 349.952 185.472,348.495 185.760,347.684 186.329 C 346.174 187.388,344.345 187.905,340.424 188.384 C 337.841 188.700,336.679 189.052,335.479 189.884 C 334.325 190.683,333.007 191.103,330.498 191.469 C 328.237 191.800,326.801 192.226,326.243 192.734 C 325.047 193.821,324.055 194.251,322.036 194.560 C 320.936 194.728,319.770 195.270,318.941 195.998 C 318.209 196.641,316.846 197.372,315.912 197.624 C 314.978 197.875,313.619 198.603,312.893 199.241 C 312.166 199.878,311.319 200.400,311.010 200.400 C 309.888 200.400,304.425 206.022,303.925 207.693 C 303.340 209.645,303.991 213.301,305.148 214.567 C 305.567 215.025,306.314 216.210,306.808 217.200 C 307.302 218.190,308.403 219.879,309.253 220.952 C 310.104 222.026,310.800 223.046,310.800 223.220 C 310.800 223.393,311.421 223.918,312.179 224.387 C 312.938 224.856,313.664 225.571,313.793 225.977 C 313.921 226.382,314.563 226.936,315.218 227.208 C 315.874 227.479,317.083 228.329,317.905 229.096 C 318.727 229.864,320.030 230.758,320.800 231.084 C 321.570 231.410,322.563 232.011,323.006 232.420 C 323.450 232.829,325.419 233.538,327.382 233.996 C 329.345 234.453,331.592 235.227,332.375 235.714 C 334.624 237.112,349.717 237.071,352.364 235.659 C 353.334 235.142,355.825 234.377,357.900 233.960 C 360.024 233.533,362.104 232.862,362.659 232.425 C 363.201 231.998,364.580 231.347,365.723 230.977 C 366.865 230.608,368.174 229.918,368.630 229.445 C 369.087 228.972,370.338 228.138,371.411 227.592 C 372.483 227.047,373.791 226.105,374.316 225.500 C 374.841 224.895,375.480 224.389,375.736 224.376 C 375.991 224.363,377.190 223.269,378.400 221.946 C 379.610 220.623,381.135 218.969,381.789 218.270 C 382.443 217.572,383.363 216.190,383.832 215.200 C 384.302 214.210,385.066 213.063,385.529 212.651 C 385.993 212.239,386.662 210.889,387.017 209.651 C 387.372 208.413,388.090 206.662,388.613 205.760 C 389.830 203.659,390.394 200.131,390.395 194.600 C 390.396 187.582,389.818 186.460,384.928 183.982 L 382.200 182.600 375.600 182.533 C 371.970 182.496,367.962 182.624,366.693 182.819 M378.291 188.638 C 380.422 191.647,380.743 192.350,380.192 192.807 C 379.890 193.058,379.334 194.069,378.958 195.054 C 378.511 196.225,377.875 197.051,377.120 197.441 C 376.485 197.770,375.770 198.468,375.531 198.992 C 375.292 199.517,374.611 200.147,374.017 200.393 C 373.424 200.639,372.357 201.457,371.645 202.211 C 370.934 202.965,369.659 203.790,368.812 204.044 C 367.953 204.301,366.898 205.012,366.425 205.652 C 365.958 206.284,365.360 206.800,365.096 206.800 C 364.832 206.800,363.581 207.438,362.317 208.219 C 361.053 208.999,359.122 209.904,358.026 210.229 C 356.931 210.555,355.925 210.997,355.792 211.213 C 355.221 212.137,352.838 212.895,348.275 213.606 C 345.594 214.024,342.410 214.657,341.200 215.013 C 338.511 215.805,330.945 215.578,327.729 214.610 C 326.591 214.267,323.714 213.731,321.336 213.419 L 317.014 212.851 314.924 210.526 C 313.774 209.246,312.871 208.077,312.917 207.927 C 313.260 206.801,317.870 202.758,319.227 202.393 C 320.091 202.160,321.145 201.596,321.571 201.139 C 321.997 200.682,323.497 199.988,324.904 199.598 C 326.312 199.208,327.939 198.448,328.520 197.909 C 329.282 197.203,330.559 196.737,333.089 196.242 C 335.020 195.864,336.661 195.381,336.736 195.169 C 337.024 194.354,339.251 193.610,343.146 193.027 C 345.373 192.694,347.601 192.167,348.097 191.856 C 349.655 190.878,351.645 190.447,356.663 189.999 C 359.433 189.752,362.518 189.217,363.828 188.756 C 368.284 187.190,377.214 187.117,378.291 188.638 M94.891 260.504 C 94.636 260.822,94.627 261.357,94.867 261.990 C 95.172 262.798,95.310 262.872,95.614 262.390 C 96.413 261.128,95.760 259.426,94.891 260.504 M91.880 263.853 C 91.726 264.007,91.600 264.473,91.600 264.887 C 91.600 265.302,90.984 266.217,90.232 266.920 C 89.479 267.624,88.570 268.920,88.212 269.800 C 87.853 270.680,87.047 271.940,86.421 272.600 C 85.795 273.260,85.163 274.371,85.016 275.069 C 84.870 275.767,84.243 277.117,83.624 278.069 C 83.005 279.021,82.274 280.790,82.001 282.000 C 81.728 283.210,80.998 285.100,80.380 286.200 C 79.505 287.756,79.113 289.267,78.613 293.000 C 78.260 295.640,77.593 299.060,77.131 300.600 C 76.036 304.250,75.928 315.114,76.959 317.942 C 77.308 318.900,77.959 322.178,78.404 325.227 C 79.295 331.329,79.378 331.634,80.623 333.471 C 81.097 334.169,81.693 335.804,81.949 337.102 C 82.204 338.400,82.868 340.078,83.424 340.831 C 83.980 341.584,84.713 343.157,85.053 344.326 C 85.394 345.496,85.934 346.553,86.255 346.676 C 86.575 346.799,87.302 347.822,87.870 348.950 C 88.439 350.077,89.510 351.676,90.252 352.501 C 90.993 353.327,91.600 354.220,91.600 354.486 C 91.600 354.752,92.050 355.427,92.599 355.985 C 93.148 356.543,95.129 358.620,97.001 360.600 C 98.872 362.580,100.703 364.470,101.070 364.800 C 104.409 367.804,105.144 368.400,105.511 368.400 C 105.743 368.400,106.442 368.951,107.066 369.624 C 107.690 370.297,108.740 371.081,109.400 371.366 C 110.060 371.651,111.382 372.540,112.338 373.342 C 113.294 374.144,114.502 374.800,115.022 374.800 C 116.010 374.800,117.600 376.188,117.600 377.049 C 117.600 377.324,117.804 378.055,118.054 378.674 C 118.684 380.237,118.822 381.600,118.349 381.600 C 118.131 381.600,118.055 381.765,118.179 381.966 C 118.303 382.167,118.179 382.423,117.902 382.534 C 117.626 382.646,119.065 382.751,121.100 382.768 C 124.068 382.794,124.800 382.916,124.800 383.386 C 124.800 383.708,125.205 384.184,125.700 384.444 C 126.195 384.704,126.744 385.161,126.920 385.458 C 127.165 385.873,128.551 386.000,132.820 386.000 L 138.400 386.000 138.400 384.480 C 138.400 382.870,137.146 382.000,134.826 382.000 C 134.288 382.000,133.378 381.422,132.631 380.606 C 131.929 379.839,130.735 379.001,129.977 378.743 C 129.220 378.485,128.044 377.807,127.364 377.237 C 126.684 376.667,125.334 375.701,124.364 375.091 C 120.837 372.874,119.856 372.173,118.243 370.717 C 117.339 369.901,115.970 368.687,115.200 368.019 C 113.345 366.410,108.699 361.755,107.197 360.000 C 106.538 359.230,105.279 357.842,104.399 356.916 C 103.520 355.990,102.800 355.045,102.800 354.817 C 102.800 354.589,102.202 353.727,101.472 352.901 C 100.741 352.076,99.903 350.770,99.609 350.000 C 99.315 349.230,98.592 348.060,98.002 347.400 C 97.412 346.740,96.624 345.367,96.251 344.349 C 95.877 343.331,95.216 342.176,94.781 341.783 C 94.347 341.390,93.652 339.970,93.238 338.628 C 92.823 337.286,92.111 335.556,91.655 334.784 C 91.200 334.011,90.553 332.077,90.218 330.485 C 89.883 328.894,89.159 326.703,88.609 325.617 C 87.834 324.088,87.472 322.395,87.007 318.121 C 86.676 315.084,86.129 310.293,85.790 307.474 C 85.207 302.622,85.217 302.012,85.978 296.074 C 86.420 292.623,86.970 288.000,87.200 285.800 C 87.490 283.014,87.915 281.193,88.600 279.800 C 89.141 278.700,89.872 276.492,90.225 274.893 C 90.578 273.295,91.373 271.038,91.992 269.879 C 93.740 266.603,93.657 262.077,91.880 263.853 M140.300 385.876 C 139.559 386.070,139.551 386.083,139.402 387.530 C 139.279 388.727,140.489 389.209,143.526 389.173 C 145.458 389.150,145.665 389.081,144.900 388.712 C 144.121 388.336,143.919 387.827,144.024 386.500 C 144.071 385.903,141.710 385.507,140.300 385.876 " stroke="none" fill="#6a4906" fill-rule="evenodd"></path><path id="path2" d="M308.000 32.400 C 308.000 32.953,308.267 33.200,308.862 33.200 C 309.699 33.200,309.703 33.176,309.000 32.400 C 308.602 31.960,308.214 31.600,308.138 31.600 C 308.062 31.600,308.000 31.960,308.000 32.400 M116.480 38.080 C 115.827 38.733,115.877 39.200,116.600 39.200 C 116.933 39.200,117.200 38.844,117.200 38.400 C 117.200 37.468,117.126 37.434,116.480 38.080 M60.300 100.432 C 59.360 100.979,59.413 101.600,60.400 101.600 C 60.933 101.600,61.200 101.333,61.200 100.800 C 61.200 99.882,61.226 99.893,60.300 100.432 M361.765 191.592 C 356.549 191.817,355.572 191.966,354.561 192.685 C 353.043 193.766,351.097 194.257,346.231 194.787 C 343.102 195.127,342.149 195.380,341.730 195.979 C 341.097 196.882,339.616 197.380,335.694 198.009 C 333.605 198.343,332.678 198.681,332.395 199.210 C 332.128 199.708,331.019 200.164,328.953 200.623 C 327.054 201.046,325.659 201.596,325.253 202.082 C 324.440 203.054,322.986 203.812,321.332 204.126 C 320.582 204.269,319.280 205.130,318.141 206.237 L 316.217 208.106 317.153 208.753 C 317.667 209.109,318.540 209.819,319.092 210.330 C 321.502 212.562,348.622 212.634,350.983 210.416 C 352.031 209.432,355.110 208.400,356.999 208.400 C 357.952 208.400,358.381 208.160,358.706 207.447 C 359.010 206.779,359.920 206.214,361.746 205.559 C 363.383 204.972,364.422 204.360,364.538 203.914 C 364.640 203.524,365.555 202.848,366.571 202.413 C 367.586 201.977,368.519 201.357,368.643 201.033 C 368.767 200.710,369.618 200.059,370.534 199.586 C 372.444 198.601,376.406 194.706,377.082 193.149 C 377.987 191.063,376.794 190.942,361.765 191.592 M89.600 208.412 C 86.410 208.806,82.090 209.339,80.000 209.598 C 77.910 209.857,75.120 210.492,73.800 211.009 C 72.480 211.527,70.230 212.246,68.800 212.608 C 67.370 212.971,65.390 213.699,64.400 214.228 C 63.410 214.757,61.393 215.556,59.917 216.005 C 58.441 216.454,57.117 217.010,56.975 217.240 C 56.833 217.470,55.431 218.248,53.858 218.970 C 52.286 219.692,50.657 220.668,50.238 221.141 C 49.819 221.613,49.275 222.000,49.029 222.000 C 48.783 222.000,47.878 222.580,47.018 223.290 C 46.157 223.999,44.951 224.854,44.337 225.190 C 42.059 226.435,34.536 233.720,31.136 237.971 C 30.181 239.166,28.724 240.966,27.897 241.971 C 27.070 242.977,26.080 244.318,25.697 244.950 C 25.314 245.583,24.566 246.633,24.036 247.284 C 23.506 247.935,22.579 249.511,21.976 250.786 C 21.373 252.060,20.672 253.232,20.418 253.389 C 20.165 253.545,19.510 254.686,18.962 255.923 C 18.415 257.160,17.694 258.475,17.360 258.844 C 17.026 259.214,16.413 260.635,15.999 262.003 C 15.585 263.372,14.770 265.178,14.187 266.018 C 12.834 267.971,12.345 271.924,13.352 272.760 C 13.922 273.233,14.881 272.414,21.326 265.949 C 25.356 261.907,30.153 257.250,31.986 255.600 C 33.819 253.950,35.997 251.970,36.826 251.200 C 43.374 245.114,44.815 243.825,45.463 243.478 C 45.868 243.260,46.650 242.675,47.200 242.177 C 50.623 239.080,51.980 238.013,53.427 237.281 C 54.321 236.829,55.304 236.157,55.609 235.789 C 56.283 234.977,59.847 232.569,62.402 231.200 C 63.428 230.650,64.899 229.705,65.671 229.100 C 66.444 228.495,67.263 228.000,67.493 228.000 C 67.722 228.000,68.816 227.377,69.922 226.616 C 71.029 225.855,72.444 225.108,73.067 224.956 C 73.690 224.805,74.920 224.179,75.800 223.566 C 76.680 222.952,78.406 222.165,79.635 221.816 C 80.865 221.466,82.468 220.740,83.197 220.202 C 83.927 219.664,85.441 218.923,86.562 218.557 C 87.683 218.190,89.320 217.481,90.200 216.980 C 91.080 216.478,92.738 215.795,93.884 215.461 C 95.030 215.126,96.740 214.401,97.684 213.849 C 98.628 213.297,100.231 212.660,101.247 212.433 C 104.918 211.613,105.262 211.370,105.124 209.701 C 104.935 207.409,100.632 207.052,89.600 208.412 M177.000 221.626 C 169.224 222.051,163.905 222.690,161.901 223.439 C 160.965 223.789,158.226 224.503,155.812 225.027 C 153.333 225.565,150.947 226.332,150.327 226.791 C 149.723 227.237,148.209 227.868,146.962 228.193 C 145.716 228.518,143.852 229.325,142.819 229.988 C 141.787 230.650,140.325 231.404,139.571 231.662 C 138.817 231.921,137.660 232.538,137.000 233.033 C 136.340 233.528,135.030 234.240,134.089 234.614 C 133.148 234.989,132.158 235.605,131.889 235.984 C 131.620 236.363,130.680 237.153,129.800 237.739 C 123.108 242.200,117.759 247.157,111.600 254.608 C 110.390 256.072,108.725 258.075,107.900 259.059 C 107.075 260.043,106.400 261.001,106.400 261.186 C 106.400 261.372,105.815 262.241,105.100 263.116 C 104.385 263.991,103.485 265.223,103.100 265.854 C 102.714 266.484,101.944 267.619,101.388 268.376 C 100.832 269.133,100.265 270.213,100.128 270.776 C 99.991 271.339,99.446 272.320,98.918 272.956 C 98.389 273.592,97.417 275.212,96.756 276.556 C 96.096 277.900,95.183 279.691,94.728 280.536 C 92.748 284.209,94.157 286.041,97.283 283.858 C 100.871 281.352,102.125 280.406,103.182 279.409 C 104.122 278.524,106.468 276.557,109.706 273.940 C 110.427 273.358,111.733 272.469,112.609 271.965 C 113.484 271.462,114.871 270.498,115.691 269.825 C 118.931 267.164,119.849 266.487,121.069 265.862 C 122.222 265.271,123.432 264.346,127.600 260.873 C 128.370 260.231,129.753 259.325,130.673 258.859 C 131.593 258.393,132.461 257.825,132.601 257.598 C 132.742 257.371,133.710 256.752,134.753 256.224 C 135.797 255.695,136.906 254.954,137.219 254.577 C 137.533 254.199,138.573 253.554,139.532 253.143 C 140.491 252.732,141.929 251.857,142.729 251.198 C 143.528 250.539,144.456 250.000,144.791 249.999 C 145.126 249.999,146.459 249.279,147.754 248.399 C 149.049 247.520,150.315 246.800,150.567 246.800 C 150.820 246.800,152.001 246.172,153.192 245.405 C 154.383 244.638,155.997 243.803,156.779 243.550 C 157.560 243.296,158.712 242.730,159.337 242.291 C 159.962 241.852,161.582 241.149,162.937 240.729 C 164.292 240.308,166.056 239.511,166.858 238.957 C 167.659 238.403,169.237 237.707,170.363 237.410 C 171.490 237.113,173.180 236.419,174.121 235.868 C 175.061 235.317,176.993 234.568,178.415 234.203 C 179.837 233.839,181.720 233.128,182.600 232.624 C 183.480 232.121,185.190 231.484,186.400 231.209 C 187.610 230.935,189.358 230.277,190.284 229.748 C 191.210 229.218,193.280 228.489,194.884 228.128 C 196.488 227.766,198.970 226.870,200.400 226.137 C 201.830 225.404,203.327 224.803,203.726 224.802 C 204.670 224.799,206.000 224.082,206.000 223.576 C 206.000 222.762,203.654 222.358,195.639 221.790 C 186.815 221.165,185.618 221.155,177.000 221.626 M364.000 308.862 C 364.000 309.699,364.024 309.703,364.800 309.000 C 365.240 308.602,365.600 308.214,365.600 308.138 C 365.600 308.062,365.240 308.000,364.800 308.000 C 364.247 308.000,364.000 308.267,364.000 308.862 M354.800 321.262 C 354.800 322.099,354.824 322.103,355.600 321.400 C 356.040 321.002,356.400 320.614,356.400 320.538 C 356.400 320.462,356.040 320.400,355.600 320.400 C 355.047 320.400,354.800 320.667,354.800 321.262 M12.800 336.386 C 12.800 336.598,13.160 336.965,13.600 337.200 C 14.278 337.563,14.400 337.504,14.400 336.814 C 14.400 336.267,14.138 336.000,13.600 336.000 C 13.160 336.000,12.800 336.174,12.800 336.386 M329.600 346.270 L 329.600 347.339 330.600 346.400 C 331.150 345.883,331.600 345.402,331.600 345.330 C 331.600 345.259,331.150 345.200,330.600 345.200 C 329.783 345.200,329.600 345.395,329.600 346.270 " stroke="none" fill="#fbf9f1" fill-rule="evenodd"></path><path id="path3" d="M367.600 189.802 C 365.510 190.076,361.190 190.604,358.000 190.976 C 354.499 191.384,351.511 191.956,350.462 192.420 C 349.506 192.843,347.076 193.472,345.062 193.817 C 343.048 194.163,340.320 194.959,339.000 195.587 C 337.680 196.214,335.610 196.930,334.400 197.178 C 333.190 197.426,331.210 198.137,330.000 198.757 C 328.790 199.377,327.185 200.001,326.433 200.145 C 325.682 200.289,324.509 200.832,323.828 201.351 C 323.147 201.871,321.675 202.690,320.558 203.170 C 319.441 203.651,317.662 204.922,316.605 205.995 L 314.683 207.946 315.742 209.204 C 316.324 209.895,316.800 210.623,316.800 210.820 C 316.800 212.642,333.690 214.052,343.200 213.023 C 350.660 212.216,350.682 212.211,354.189 210.534 C 355.723 209.800,357.272 209.200,357.633 209.200 C 357.993 209.200,358.976 208.733,359.817 208.163 C 360.657 207.593,362.302 206.703,363.472 206.185 C 364.643 205.667,365.600 205.062,365.600 204.839 C 365.600 204.616,366.455 203.942,367.500 203.342 C 368.545 202.741,369.991 201.744,370.714 201.125 C 371.437 200.506,372.204 200.000,372.419 200.000 C 373.228 200.000,377.601 195.213,378.232 193.636 C 379.837 189.625,376.937 188.579,367.600 189.802 M377.089 191.649 C 378.134 192.694,373.856 197.873,370.534 199.586 C 369.618 200.059,368.767 200.710,368.643 201.033 C 368.519 201.357,367.586 201.977,366.571 202.413 C 365.555 202.848,364.640 203.524,364.538 203.914 C 364.422 204.360,363.383 204.972,361.746 205.559 C 359.920 206.214,359.010 206.779,358.706 207.447 C 358.381 208.160,357.952 208.400,356.999 208.400 C 355.110 208.400,352.031 209.432,350.983 210.416 C 348.622 212.634,321.502 212.562,319.092 210.330 C 318.540 209.819,317.667 209.109,317.153 208.753 L 316.217 208.106 318.141 206.237 C 319.280 205.130,320.582 204.269,321.332 204.126 C 322.986 203.812,324.440 203.054,325.253 202.082 C 325.659 201.596,327.054 201.046,328.953 200.623 C 331.019 200.164,332.128 199.708,332.395 199.210 C 332.678 198.681,333.605 198.343,335.694 198.009 C 339.616 197.380,341.097 196.882,341.730 195.979 C 342.149 195.380,343.102 195.127,346.231 194.787 C 351.097 194.257,353.043 193.766,354.561 192.685 C 356.183 191.531,376.057 190.617,377.089 191.649 M89.400 206.672 C 88.740 206.767,86.940 207.179,85.400 207.589 C 83.860 207.998,80.530 208.532,78.000 208.775 C 74.253 209.136,72.983 209.433,71.152 210.379 C 69.916 211.017,67.788 211.759,66.423 212.027 C 65.058 212.296,63.296 212.953,62.508 213.489 C 61.719 214.024,60.002 214.795,58.693 215.203 C 57.383 215.610,55.926 216.286,55.456 216.705 C 54.985 217.124,53.724 217.790,52.653 218.184 C 51.582 218.579,50.322 219.347,49.853 219.891 C 49.384 220.434,48.320 221.153,47.488 221.488 C 46.657 221.822,45.817 222.390,45.623 222.748 C 45.428 223.107,44.578 223.752,43.734 224.182 C 41.727 225.204,40.415 226.442,29.913 237.212 C 29.156 237.989,28.036 239.478,27.425 240.521 C 26.814 241.565,25.987 242.593,25.589 242.806 C 25.191 243.019,24.747 243.733,24.602 244.392 C 24.457 245.051,23.891 245.942,23.344 246.373 C 22.797 246.803,21.889 248.110,21.326 249.277 C 20.763 250.445,19.874 251.909,19.351 252.531 C 18.828 253.153,18.400 253.883,18.400 254.154 C 18.400 254.425,17.765 255.702,16.989 256.990 C 16.213 258.279,15.381 260.117,15.140 261.074 C 14.899 262.031,14.197 263.449,13.580 264.225 C 12.606 265.450,11.600 268.481,11.600 270.189 C 11.600 270.491,11.130 271.297,10.556 271.979 C 9.651 273.055,9.547 273.453,9.776 274.977 C 10.130 277.340,10.925 277.991,11.809 276.642 C 12.173 276.086,12.844 275.513,13.300 275.368 C 13.755 275.224,17.744 271.482,22.164 267.053 C 30.447 258.752,39.487 250.196,44.400 246.008 C 45.170 245.351,46.572 244.091,47.515 243.207 C 48.459 242.323,49.403 241.600,49.614 241.600 C 49.825 241.600,50.673 240.994,51.499 240.253 C 52.324 239.512,53.759 238.521,54.687 238.052 C 55.614 237.582,56.574 236.823,56.819 236.365 C 57.064 235.907,57.849 235.288,58.564 234.989 C 59.279 234.691,60.107 234.153,60.405 233.794 C 60.703 233.435,62.067 232.633,63.437 232.012 C 64.807 231.391,66.116 230.530,66.348 230.098 C 66.579 229.666,67.564 229.090,68.537 228.818 C 69.511 228.545,70.850 227.826,71.513 227.220 C 72.177 226.614,73.676 225.806,74.845 225.423 C 76.014 225.041,77.459 224.317,78.057 223.814 C 78.654 223.311,79.974 222.775,80.989 222.623 C 82.186 222.443,83.308 221.929,84.185 221.159 C 84.973 220.468,86.509 219.719,87.868 219.365 C 89.151 219.031,90.650 218.343,91.200 217.836 C 91.803 217.280,93.201 216.708,94.721 216.398 C 96.107 216.114,98.019 215.367,98.970 214.737 C 99.930 214.101,101.743 213.398,103.048 213.157 C 106.046 212.603,106.605 212.290,108.845 209.908 L 110.691 207.947 109.664 207.273 C 108.661 206.615,93.025 206.151,89.400 206.672 M103.200 207.930 C 104.935 208.190,105.004 208.254,105.124 209.701 C 105.262 211.370,104.918 211.613,101.247 212.433 C 100.231 212.660,98.628 213.297,97.684 213.849 C 96.740 214.401,95.030 215.126,93.884 215.461 C 92.738 215.795,91.080 216.478,90.200 216.980 C 89.320 217.481,87.683 218.190,86.562 218.557 C 85.441 218.923,83.927 219.664,83.197 220.202 C 82.468 220.740,80.865 221.466,79.635 221.816 C 78.406 222.165,76.680 222.952,75.800 223.566 C 74.920 224.179,73.690 224.805,73.067 224.956 C 72.444 225.108,71.029 225.855,69.922 226.616 C 68.816 227.377,67.722 228.000,67.493 228.000 C 67.263 228.000,66.444 228.495,65.671 229.100 C 64.899 229.705,63.428 230.650,62.402 231.200 C 59.847 232.569,56.283 234.977,55.609 235.789 C 55.304 236.157,54.321 236.829,53.427 237.281 C 51.980 238.013,50.623 239.080,47.200 242.177 C 46.650 242.675,45.868 243.260,45.463 243.478 C 44.815 243.825,43.374 245.114,36.826 251.200 C 35.997 251.970,33.819 253.950,31.986 255.600 C 30.153 257.250,25.356 261.907,21.326 265.949 C 14.881 272.414,13.922 273.233,13.352 272.760 C 12.345 271.924,12.834 267.971,14.187 266.018 C 14.770 265.178,15.585 263.372,15.999 262.003 C 16.413 260.635,17.026 259.214,17.360 258.844 C 17.694 258.475,18.415 257.160,18.962 255.923 C 19.510 254.686,20.165 253.545,20.418 253.389 C 20.672 253.232,21.373 252.060,21.976 250.786 C 22.579 249.511,23.506 247.935,24.036 247.284 C 24.566 246.633,25.314 245.583,25.697 244.950 C 26.080 244.318,27.070 242.977,27.897 241.971 C 28.724 240.966,30.181 239.166,31.136 237.971 C 34.536 233.720,42.059 226.435,44.337 225.190 C 44.951 224.854,46.157 223.999,47.018 223.290 C 47.878 222.580,48.783 222.000,49.029 222.000 C 49.275 222.000,49.819 221.613,50.238 221.141 C 50.657 220.668,52.286 219.692,53.858 218.970 C 55.431 218.248,56.833 217.470,56.975 217.240 C 57.117 217.010,58.441 216.454,59.917 216.005 C 61.393 215.556,63.410 214.757,64.400 214.228 C 65.390 213.699,67.370 212.971,68.800 212.608 C 70.230 212.246,72.480 211.527,73.800 211.009 C 75.120 210.492,77.910 209.857,80.000 209.598 C 82.090 209.339,86.410 208.806,89.600 208.412 C 95.782 207.650,100.277 207.491,103.200 207.930 M181.233 219.633 C 178.941 219.809,176.241 220.148,175.233 220.386 C 174.225 220.625,170.464 221.075,166.874 221.387 C 161.205 221.880,160.121 222.087,158.614 222.971 C 157.525 223.609,155.591 224.194,153.421 224.541 C 151.040 224.923,149.689 225.352,149.082 225.920 C 148.597 226.374,146.852 227.106,145.204 227.547 C 143.361 228.040,141.946 228.673,141.527 229.191 C 141.152 229.654,139.980 230.320,138.922 230.670 C 137.865 231.020,136.550 231.703,136.000 232.189 C 135.450 232.675,134.370 233.309,133.600 233.599 C 132.830 233.889,131.641 234.648,130.958 235.285 C 130.276 235.922,129.167 236.749,128.494 237.122 C 127.822 237.495,126.310 238.580,125.136 239.533 C 123.961 240.486,122.385 241.746,121.633 242.333 C 119.663 243.871,115.176 248.511,109.979 254.384 C 109.110 255.365,108.400 256.395,108.400 256.672 C 108.400 256.949,107.864 257.573,107.208 258.057 C 106.553 258.542,105.818 259.539,105.576 260.272 C 105.334 261.006,104.790 261.791,104.367 262.017 C 103.945 262.244,103.142 263.331,102.583 264.433 C 102.025 265.536,101.314 266.535,101.004 266.654 C 100.695 266.773,100.141 267.773,99.774 268.878 C 99.407 269.982,98.679 271.258,98.156 271.713 C 97.633 272.168,96.833 273.533,96.379 274.748 C 95.925 275.963,95.123 277.386,94.598 277.911 C 94.038 278.471,93.435 279.793,93.141 281.105 C 92.833 282.486,92.288 283.651,91.720 284.144 C 90.641 285.083,90.555 286.055,91.435 287.397 C 92.183 288.538,94.263 287.994,96.658 286.031 C 97.350 285.464,98.859 284.280,100.011 283.400 C 101.163 282.520,102.667 281.259,103.353 280.598 C 104.039 279.937,105.085 279.180,105.679 278.916 C 106.272 278.652,107.056 277.982,107.420 277.426 C 107.784 276.870,108.896 276.009,109.890 275.512 C 110.885 275.015,111.789 274.374,111.899 274.086 C 112.010 273.798,112.949 273.132,113.988 272.606 C 115.026 272.080,116.178 271.188,116.547 270.625 C 116.916 270.061,117.476 269.600,117.790 269.600 C 118.104 269.600,118.955 268.997,119.681 268.259 C 120.406 267.522,121.488 266.800,122.084 266.656 C 122.681 266.511,123.761 265.789,124.484 265.051 C 125.208 264.312,126.358 263.423,127.041 263.075 C 127.723 262.726,128.572 261.997,128.927 261.455 C 129.282 260.913,130.080 260.358,130.700 260.222 C 131.319 260.086,132.361 259.513,133.013 258.948 C 133.666 258.384,135.049 257.490,136.086 256.961 C 137.123 256.433,138.147 255.673,138.362 255.271 C 138.577 254.869,139.486 254.321,140.383 254.052 C 141.280 253.784,142.604 253.045,143.327 252.411 C 144.049 251.776,145.441 250.948,146.420 250.569 C 147.399 250.190,148.650 249.479,149.200 248.988 C 149.750 248.498,150.920 247.873,151.800 247.600 C 152.680 247.327,153.850 246.697,154.400 246.201 C 154.950 245.705,156.480 244.903,157.800 244.420 C 159.120 243.937,160.584 243.184,161.052 242.746 C 161.521 242.308,162.918 241.714,164.157 241.427 C 165.395 241.139,167.108 240.418,167.963 239.826 C 168.818 239.233,170.639 238.487,172.010 238.167 C 173.380 237.847,175.014 237.154,175.641 236.627 C 176.305 236.068,177.961 235.400,179.614 235.024 C 181.173 234.670,183.112 233.953,183.924 233.431 C 184.736 232.910,186.774 232.187,188.453 231.825 C 190.256 231.436,191.785 230.859,192.186 230.415 C 192.843 229.689,194.778 229.109,198.279 228.587 C 199.203 228.449,200.733 227.833,201.679 227.218 C 202.626 226.602,204.331 225.797,205.469 225.427 C 210.531 223.785,208.647 221.865,201.300 221.177 C 198.935 220.956,195.290 220.522,193.200 220.214 C 187.462 219.367,185.776 219.286,181.233 219.633 M195.639 221.790 C 203.654 222.358,206.000 222.762,206.000 223.576 C 206.000 224.082,204.670 224.799,203.726 224.802 C 203.327 224.803,201.830 225.404,200.400 226.137 C 198.970 226.870,196.488 227.766,194.884 228.128 C 193.280 228.489,191.210 229.218,190.284 229.748 C 189.358 230.277,187.610 230.935,186.400 231.209 C 185.190 231.484,183.480 232.121,182.600 232.624 C 181.720 233.128,179.837 233.839,178.415 234.203 C 176.993 234.568,175.061 235.317,174.121 235.868 C 173.180 236.419,171.490 237.113,170.363 237.410 C 169.237 237.707,167.659 238.403,166.858 238.957 C 166.056 239.511,164.292 240.308,162.937 240.729 C 161.582 241.149,159.962 241.852,159.337 242.291 C 158.712 242.730,157.560 243.296,156.779 243.550 C 155.997 243.803,154.383 244.638,153.192 245.405 C 152.001 246.172,150.820 246.800,150.567 246.800 C 150.315 246.800,149.049 247.520,147.754 248.399 C 146.459 249.279,145.126 249.999,144.791 249.999 C 144.456 250.000,143.528 250.539,142.729 251.198 C 141.929 251.857,140.491 252.732,139.532 253.143 C 138.573 253.554,137.533 254.199,137.219 254.577 C 136.906 254.954,135.797 255.695,134.753 256.224 C 133.710 256.752,132.742 257.371,132.601 257.598 C 132.461 257.825,131.593 258.393,130.673 258.859 C 129.753 259.325,128.370 260.231,127.600 260.873 C 123.432 264.346,122.222 265.271,121.069 265.862 C 119.849 266.487,118.931 267.164,115.691 269.825 C 114.871 270.498,113.484 271.462,112.609 271.965 C 111.733 272.469,110.427 273.358,109.706 273.940 C 106.468 276.557,104.122 278.524,103.182 279.409 C 102.125 280.406,100.871 281.352,97.283 283.858 C 94.157 286.041,92.748 284.209,94.728 280.536 C 95.183 279.691,96.096 277.900,96.756 276.556 C 97.417 275.212,98.389 273.592,98.918 272.956 C 99.446 272.320,99.991 271.339,100.128 270.776 C 100.265 270.213,100.832 269.133,101.388 268.376 C 101.944 267.619,102.714 266.484,103.100 265.854 C 103.485 265.223,104.385 263.991,105.100 263.116 C 105.815 262.241,106.400 261.372,106.400 261.186 C 106.400 261.001,107.075 260.043,107.900 259.059 C 108.725 258.075,110.390 256.072,111.600 254.608 C 117.759 247.157,123.108 242.200,129.800 237.739 C 130.680 237.153,131.620 236.363,131.889 235.984 C 132.158 235.605,133.148 234.989,134.089 234.614 C 135.030 234.240,136.340 233.528,137.000 233.033 C 137.660 232.538,138.817 231.921,139.571 231.662 C 140.325 231.404,141.787 230.650,142.819 229.988 C 143.852 229.325,145.716 228.518,146.962 228.193 C 148.209 227.868,149.723 227.237,150.327 226.791 C 150.947 226.332,153.333 225.565,155.812 225.027 C 158.226 224.503,160.965 223.789,161.901 223.439 C 163.905 222.690,169.224 222.051,177.000 221.626 C 185.618 221.155,186.815 221.165,195.639 221.790 " stroke="none" fill="#e6cd8d" fill-rule="evenodd"></path><path id="path4" d="M274.419 14.600 C 274.431 15.246,275.994 16.939,276.298 16.635 C 276.452 16.482,276.342 16.211,276.054 16.034 C 275.767 15.856,275.547 15.596,275.566 15.455 C 275.585 15.315,275.485 15.215,275.345 15.234 C 275.204 15.253,274.937 15.028,274.751 14.734 C 274.565 14.440,274.415 14.380,274.419 14.600 M84.534 65.093 C 84.832 65.576,83.856 66.522,83.463 66.130 C 83.318 65.985,83.200 66.077,83.200 66.333 C 83.200 67.026,83.786 66.900,84.564 66.040 C 85.081 65.468,85.131 65.204,84.764 64.978 C 84.472 64.797,84.379 64.843,84.534 65.093 M81.567 69.233 C 81.108 69.692,80.852 70.185,80.997 70.330 C 81.142 70.475,81.435 70.280,81.650 69.897 C 81.864 69.514,82.233 69.200,82.469 69.200 C 82.744 69.200,82.719 69.416,82.400 69.800 C 81.992 70.291,82.019 70.400,82.547 70.400 C 82.989 70.400,83.165 70.087,83.108 69.400 C 83.007 68.182,82.656 68.144,81.567 69.233 M355.365 71.725 C 355.761 72.014,356.441 72.689,356.877 73.225 C 357.313 73.761,357.537 73.930,357.375 73.600 C 356.914 72.659,355.503 71.200,355.054 71.200 C 354.830 71.200,354.970 71.436,355.365 71.725 M343.800 73.038 C 343.140 73.609,342.118 74.326,341.530 74.632 C 340.672 75.079,340.367 75.646,339.994 77.495 C 339.737 78.763,339.139 80.686,338.664 81.768 C 337.372 84.711,337.392 96.837,338.696 101.000 C 339.241 102.743,339.741 105.908,340.019 109.384 C 340.429 114.495,341.146 117.930,342.032 119.027 C 342.313 119.375,343.600 126.691,343.600 127.942 C 343.600 128.132,344.064 128.972,344.632 129.808 C 345.246 130.714,345.893 132.531,346.232 134.304 C 346.846 137.512,346.952 137.789,348.032 139.000 C 348.425 139.440,349.091 141.093,349.514 142.673 C 349.950 144.302,350.741 146.090,351.341 146.803 C 351.924 147.495,352.400 148.401,352.400 148.817 C 352.400 149.232,352.939 150.186,353.597 150.935 C 354.255 151.685,355.110 153.006,355.498 153.871 C 358.983 161.655,368.508 162.676,369.771 155.400 C 369.923 154.520,370.509 152.450,371.072 150.800 C 372.309 147.176,372.298 137.035,371.054 133.600 C 370.434 131.889,370.052 129.190,369.266 120.963 C 369.030 118.499,368.594 116.630,367.911 115.163 C 367.317 113.887,366.794 111.853,366.635 110.200 C 366.286 106.561,365.786 104.745,364.783 103.469 C 364.331 102.894,363.709 101.080,363.387 99.395 C 362.771 96.178,362.403 95.232,361.461 94.451 C 361.140 94.184,360.568 92.701,360.189 91.154 C 359.810 89.608,359.090 87.855,358.589 87.260 C 358.088 86.665,357.465 85.386,357.205 84.417 C 356.944 83.448,356.222 82.181,355.601 81.601 C 354.980 81.021,354.195 79.884,353.857 79.074 C 353.518 78.264,352.796 77.399,352.252 77.151 C 351.707 76.903,351.159 76.292,351.034 75.795 C 350.888 75.213,350.236 74.661,349.209 74.250 C 348.330 73.899,347.248 73.248,346.805 72.805 C 345.750 71.750,345.245 71.790,343.800 73.038 M354.800 72.289 C 354.800 72.792,355.943 73.790,356.212 73.521 C 356.318 73.415,356.044 73.002,355.602 72.602 C 355.161 72.203,354.800 72.062,354.800 72.289 M347.730 75.484 C 348.473 75.634,349.199 76.248,349.847 77.275 C 350.390 78.135,351.088 78.936,351.398 79.054 C 351.708 79.173,352.164 79.884,352.411 80.634 C 352.659 81.384,353.474 82.731,354.223 83.627 C 354.972 84.524,355.785 86.009,356.029 86.929 C 356.274 87.848,356.912 89.179,357.448 89.888 C 357.984 90.596,358.625 92.187,358.873 93.424 C 359.122 94.661,359.711 96.241,360.182 96.936 C 361.316 98.609,361.552 99.278,362.198 102.653 C 362.498 104.223,363.201 106.383,363.760 107.453 C 364.439 108.755,364.972 110.791,365.369 113.600 C 365.696 115.910,366.331 118.862,366.781 120.160 C 368.136 124.071,368.552 129.086,368.576 141.810 L 368.600 153.820 367.579 155.810 C 365.127 160.586,359.807 158.657,356.799 151.902 C 356.382 150.966,355.687 149.983,355.254 149.718 C 354.811 149.446,354.188 148.276,353.830 147.044 C 353.480 145.839,352.740 144.315,352.186 143.656 C 351.631 142.997,350.867 141.234,350.485 139.730 C 350.103 138.228,349.390 136.352,348.900 135.561 C 348.411 134.769,347.740 132.713,347.411 130.992 C 347.082 129.271,346.376 127.030,345.844 126.011 C 345.222 124.822,344.644 122.603,344.231 119.822 C 343.876 117.436,343.215 114.656,342.761 113.642 C 340.839 109.357,340.043 87.065,341.502 78.400 C 341.821 76.506,344.495 74.510,346.000 75.043 C 346.330 75.160,347.109 75.359,347.730 75.484 M72.000 80.357 C 72.000 80.627,71.832 80.744,71.628 80.617 C 71.423 80.491,71.150 80.557,71.021 80.766 C 70.892 80.974,70.949 81.245,71.148 81.368 C 71.588 81.640,72.618 80.485,72.257 80.124 C 72.116 79.982,72.000 80.087,72.000 80.357 M276.100 81.377 C 275.385 81.699,274.800 82.204,274.800 82.500 C 274.800 82.797,274.168 83.268,273.396 83.547 C 272.505 83.869,271.758 84.519,271.350 85.327 C 270.997 86.027,270.214 86.998,269.610 87.485 C 268.944 88.022,268.302 89.123,267.976 90.285 C 267.681 91.338,267.039 92.791,266.549 93.513 C 265.522 95.027,265.391 95.580,264.777 100.993 C 264.528 103.190,264.026 105.530,263.662 106.193 C 262.664 108.012,262.730 123.386,263.746 126.000 C 264.155 127.051,264.683 130.358,265.015 133.946 C 265.463 138.792,265.791 140.546,266.566 142.238 C 267.107 143.419,267.667 145.243,267.811 146.292 C 268.251 149.492,268.830 151.343,269.790 152.612 C 270.294 153.279,270.923 154.865,271.187 156.136 C 271.484 157.568,272.085 158.934,272.766 159.724 C 273.371 160.426,274.096 161.900,274.378 163.000 C 274.685 164.199,275.329 165.401,275.984 166.000 C 276.585 166.550,277.277 167.591,277.522 168.314 C 278.308 170.629,285.826 178.850,287.667 179.408 C 288.180 179.563,289.065 180.125,289.634 180.657 C 292.206 183.061,303.200 182.560,303.200 180.039 C 303.200 179.833,303.836 179.272,304.614 178.791 C 305.492 178.249,306.419 177.136,307.058 175.859 C 307.625 174.726,308.432 173.425,308.851 172.967 C 309.271 172.508,309.808 171.068,310.045 169.767 C 310.281 168.465,310.725 166.950,311.030 166.400 C 312.675 163.440,312.878 162.512,313.255 156.231 C 313.964 144.442,313.099 129.489,311.556 126.849 C 311.060 126.000,310.550 123.854,310.183 121.070 C 309.740 117.709,309.367 116.299,308.636 115.221 C 308.107 114.439,307.554 112.990,307.409 112.000 C 306.992 109.164,306.379 107.481,305.368 106.395 C 304.852 105.841,304.224 104.420,303.969 103.229 C 303.665 101.814,303.131 100.712,302.421 100.034 C 301.824 99.465,301.016 98.100,300.625 97.000 C 300.234 95.900,299.596 94.719,299.207 94.376 C 298.818 94.033,298.204 93.181,297.843 92.483 C 297.482 91.785,296.661 90.825,296.018 90.350 C 295.376 89.875,294.643 88.988,294.391 88.378 C 294.138 87.768,293.447 87.068,292.856 86.823 C 292.264 86.578,291.605 85.982,291.390 85.499 C 291.012 84.646,290.064 84.002,288.000 83.197 C 287.450 82.983,286.492 82.400,285.872 81.904 C 284.432 80.751,278.237 80.417,276.100 81.377 M285.000 84.006 C 286.320 84.614,287.800 85.233,288.290 85.380 C 288.779 85.527,289.549 86.166,290.000 86.800 C 290.451 87.434,291.179 88.066,291.617 88.205 C 292.055 88.344,292.767 89.152,293.200 90.000 C 293.633 90.848,294.316 91.646,294.718 91.774 C 295.120 91.901,295.773 92.742,296.170 93.641 C 296.567 94.541,297.412 95.869,298.048 96.593 C 298.683 97.317,299.479 98.690,299.815 99.643 C 300.152 100.597,300.765 101.742,301.179 102.189 C 301.593 102.635,302.237 104.080,302.611 105.400 C 302.986 106.720,303.747 108.407,304.303 109.148 C 304.949 110.010,305.520 111.586,305.884 113.515 C 306.198 115.175,306.870 117.359,307.379 118.367 C 307.888 119.375,308.429 121.190,308.581 122.400 C 309.412 128.988,310.092 132.923,310.616 134.176 C 312.223 138.022,312.136 155.256,310.487 160.000 C 310.066 161.210,309.404 164.000,309.017 166.200 C 308.589 168.624,308.032 170.515,307.601 171.000 C 307.210 171.440,306.527 172.524,306.083 173.410 C 305.391 174.789,303.947 176.287,300.236 179.472 C 298.521 180.944,292.570 180.902,291.697 179.411 C 291.534 179.132,290.590 178.497,289.600 177.999 C 287.397 176.891,283.089 172.795,281.752 170.536 C 281.210 169.621,280.496 168.769,280.165 168.642 C 279.834 168.515,279.281 167.734,278.935 166.906 C 278.590 166.078,277.814 164.770,277.211 164.000 C 276.608 163.230,275.796 161.610,275.407 160.400 C 275.018 159.190,274.385 157.840,273.999 157.400 C 273.261 156.558,272.627 154.755,272.229 152.371 C 272.098 151.585,271.550 150.346,271.012 149.617 C 270.474 148.887,269.867 147.370,269.664 146.245 C 268.537 140.028,268.272 138.917,267.595 137.590 C 265.271 133.035,265.309 100.334,267.643 96.538 C 268.069 95.844,268.793 94.135,269.251 92.740 C 269.719 91.313,270.659 89.568,271.401 88.747 C 272.125 87.945,272.827 86.944,272.961 86.524 C 273.098 86.090,274.584 85.041,276.390 84.103 C 280.067 82.191,281.040 82.180,285.000 84.006 M364.092 85.000 C 364.035 85.687,364.211 86.000,364.653 86.000 C 365.181 86.000,365.208 85.891,364.800 85.400 C 364.481 85.016,364.456 84.800,364.731 84.800 C 364.967 84.800,365.336 85.114,365.550 85.497 C 365.765 85.880,366.058 86.075,366.203 85.930 C 366.483 85.650,365.016 84.000,364.487 84.000 C 364.315 84.000,364.137 84.450,364.092 85.000 M56.572 105.555 C 56.866 106.030,55.815 106.873,55.399 106.497 C 55.219 106.333,55.208 106.437,55.376 106.726 C 55.618 107.146,55.831 107.115,56.430 106.573 C 57.083 105.982,57.152 105.200,56.553 105.200 C 56.443 105.200,56.451 105.360,56.572 105.555 M381.232 111.451 C 381.191 112.034,382.340 112.993,382.676 112.657 C 382.818 112.516,382.713 112.400,382.443 112.400 C 382.173 112.400,382.081 112.192,382.238 111.938 C 382.407 111.665,382.349 111.584,382.096 111.741 C 381.861 111.886,381.577 111.779,381.466 111.502 C 381.340 111.189,381.251 111.170,381.232 111.451 M53.633 112.767 C 52.544 113.856,52.582 114.207,53.800 114.308 C 54.487 114.365,54.800 114.189,54.800 113.747 C 54.800 113.219,54.691 113.192,54.200 113.600 C 53.816 113.919,53.600 113.944,53.600 113.669 C 53.600 113.433,53.914 113.064,54.297 112.850 C 54.680 112.635,54.875 112.342,54.730 112.197 C 54.585 112.052,54.092 112.308,53.633 112.767 M392.120 146.739 C 392.101 147.671,393.140 148.755,393.991 148.691 C 394.580 148.646,394.637 148.480,394.310 147.762 C 393.770 146.577,392.139 145.815,392.120 146.739 M393.608 147.410 C 394.381 148.341,393.829 148.517,393.002 147.602 C 392.603 147.161,392.462 146.800,392.689 146.800 C 392.916 146.800,393.330 147.074,393.608 147.410 M361.500 181.353 C 360.455 181.641,359.268 182.177,358.862 182.544 C 358.292 183.060,356.799 183.295,352.281 183.582 C 346.432 183.952,345.349 184.219,343.738 185.684 C 343.081 186.282,341.976 186.545,339.090 186.792 C 335.131 187.132,334.232 187.424,333.140 188.728 C 332.510 189.480,331.945 189.627,327.450 190.211 C 326.151 190.379,325.172 190.792,324.519 191.445 C 323.874 192.090,322.648 192.612,320.934 192.971 C 319.189 193.337,317.971 193.861,317.240 194.562 C 316.640 195.137,315.170 195.920,313.974 196.304 C 312.511 196.772,311.671 197.294,311.405 197.900 C 311.188 198.395,310.782 198.800,310.504 198.800 C 308.430 198.800,303.085 203.807,302.390 206.400 C 301.455 209.888,302.387 215.447,304.168 217.000 C 304.673 217.440,305.384 218.623,305.749 219.629 C 306.128 220.674,306.924 221.837,307.606 222.341 C 308.263 222.827,308.800 223.486,308.800 223.807 C 308.800 224.128,309.506 224.835,310.368 225.380 C 311.231 225.924,312.054 226.739,312.197 227.189 C 312.340 227.640,313.029 228.301,313.728 228.659 C 314.428 229.016,315.578 229.898,316.284 230.618 C 316.990 231.338,318.214 232.141,319.003 232.401 C 319.793 232.662,320.845 233.282,321.343 233.779 C 321.840 234.277,323.227 234.909,324.424 235.185 C 325.621 235.461,327.239 236.117,328.020 236.642 C 330.295 238.173,333.288 238.491,344.021 238.339 L 353.843 238.200 356.421 236.913 C 357.840 236.205,360.126 235.374,361.502 235.066 C 362.878 234.758,364.699 234.024,365.549 233.436 C 366.398 232.847,367.725 232.190,368.497 231.977 C 369.270 231.764,370.328 231.166,370.851 230.649 C 371.373 230.131,372.552 229.326,373.471 228.861 C 374.390 228.395,375.262 227.634,375.409 227.170 C 375.557 226.706,376.275 226.077,377.005 225.772 C 377.736 225.467,378.713 224.684,379.177 224.032 C 379.641 223.381,380.357 222.741,380.767 222.610 C 381.178 222.480,381.741 221.825,382.018 221.156 C 382.296 220.486,382.942 219.664,383.454 219.328 C 383.966 218.992,384.780 217.926,385.263 216.959 C 385.746 215.992,386.257 215.200,386.397 215.200 C 386.808 215.200,388.289 212.312,388.577 210.950 C 388.723 210.263,389.274 209.294,389.804 208.797 C 391.297 207.393,391.743 204.344,391.761 195.400 C 391.779 186.159,391.503 185.009,388.930 183.622 C 388.089 183.168,386.892 182.392,386.272 181.898 C 384.872 180.784,365.145 180.350,361.500 181.353 M384.928 183.982 C 389.818 186.460,390.396 187.582,390.395 194.600 C 390.394 200.131,389.830 203.659,388.613 205.760 C 388.090 206.662,387.372 208.413,387.017 209.651 C 386.662 210.889,385.993 212.239,385.529 212.651 C 385.066 213.063,384.302 214.210,383.832 215.200 C 383.363 216.190,382.443 217.572,381.789 218.270 C 381.135 218.969,379.610 220.623,378.400 221.946 C 377.190 223.269,375.991 224.363,375.736 224.376 C 375.480 224.389,374.841 224.895,374.316 225.500 C 373.791 226.105,372.483 227.047,371.411 227.592 C 370.338 228.138,369.087 228.972,368.630 229.445 C 368.174 229.918,366.865 230.608,365.723 230.977 C 364.580 231.347,363.201 231.998,362.659 232.425 C 362.104 232.862,360.024 233.533,357.900 233.960 C 355.825 234.377,353.334 235.142,352.364 235.659 C 349.717 237.071,334.624 237.112,332.375 235.714 C 331.592 235.227,329.345 234.453,327.382 233.996 C 325.419 233.538,323.450 232.829,323.006 232.420 C 322.563 232.011,321.570 231.410,320.800 231.084 C 320.030 230.758,318.727 229.864,317.905 229.096 C 317.083 228.329,315.874 227.479,315.218 227.208 C 314.563 226.936,313.921 226.382,313.793 225.977 C 313.664 225.571,312.938 224.856,312.179 224.387 C 311.421 223.918,310.800 223.393,310.800 223.220 C 310.800 223.046,310.104 222.026,309.253 220.952 C 308.403 219.879,307.302 218.190,306.808 217.200 C 306.314 216.210,305.567 215.025,305.148 214.567 C 303.991 213.301,303.340 209.645,303.925 207.693 C 304.425 206.022,309.888 200.400,311.010 200.400 C 311.319 200.400,312.166 199.878,312.893 199.241 C 313.619 198.603,314.978 197.875,315.912 197.624 C 316.846 197.372,318.209 196.641,318.941 195.998 C 319.770 195.270,320.936 194.728,322.036 194.560 C 324.055 194.251,325.047 193.821,326.243 192.734 C 326.801 192.226,328.237 191.800,330.498 191.469 C 333.007 191.103,334.325 190.683,335.479 189.884 C 336.679 189.052,337.841 188.700,340.424 188.384 C 344.345 187.905,346.174 187.388,347.684 186.329 C 348.495 185.760,349.952 185.472,353.484 185.184 C 359.082 184.728,360.420 184.520,362.681 183.752 C 365.598 182.761,368.763 182.463,375.600 182.533 L 382.200 182.600 384.928 183.982 M369.965 187.672 C 367.843 187.824,365.102 188.309,363.828 188.756 C 362.518 189.217,359.433 189.752,356.663 189.999 C 351.645 190.447,349.655 190.878,348.097 191.856 C 347.601 192.167,345.373 192.694,343.146 193.027 C 339.251 193.610,337.024 194.354,336.736 195.169 C 336.661 195.381,335.020 195.864,333.089 196.242 C 330.559 196.737,329.282 197.203,328.520 197.909 C 327.939 198.448,326.312 199.208,324.904 199.598 C 323.497 199.988,321.997 200.682,321.571 201.139 C 321.145 201.596,320.091 202.160,319.227 202.393 C 317.870 202.758,313.260 206.801,312.917 207.927 C 312.871 208.077,313.774 209.246,314.924 210.526 L 317.014 212.851 321.336 213.419 C 323.714 213.731,326.591 214.267,327.729 214.610 C 330.945 215.578,338.511 215.805,341.200 215.013 C 342.410 214.657,345.594 214.024,348.275 213.606 C 352.838 212.895,355.221 212.137,355.792 211.213 C 355.925 210.997,356.931 210.555,358.026 210.229 C 359.122 209.904,361.053 208.999,362.317 208.219 C 363.581 207.438,364.832 206.800,365.096 206.800 C 365.360 206.800,365.958 206.284,366.425 205.652 C 366.898 205.012,367.953 204.301,368.812 204.044 C 369.659 203.790,370.934 202.965,371.645 202.211 C 372.357 201.457,373.424 200.639,374.017 200.393 C 374.611 200.147,375.292 199.517,375.531 198.992 C 375.770 198.468,376.485 197.770,377.120 197.441 C 377.875 197.051,378.511 196.225,378.958 195.054 C 379.334 194.069,379.890 193.058,380.192 192.807 C 380.743 192.350,380.422 191.647,378.291 188.638 C 377.581 187.636,374.864 187.321,369.965 187.672 M377.824 190.597 C 378.878 191.977,378.882 192.011,378.232 193.636 C 377.601 195.213,373.228 200.000,372.419 200.000 C 372.204 200.000,371.437 200.506,370.714 201.125 C 369.991 201.744,368.545 202.741,367.500 203.342 C 366.455 203.942,365.600 204.616,365.600 204.839 C 365.600 205.062,364.643 205.667,363.472 206.185 C 362.302 206.703,360.657 207.593,359.817 208.163 C 358.976 208.733,357.993 209.200,357.633 209.200 C 357.272 209.200,355.723 209.800,354.189 210.534 C 350.682 212.211,350.660 212.216,343.200 213.023 C 333.690 214.052,316.800 212.642,316.800 210.820 C 316.800 210.623,316.324 209.895,315.742 209.204 L 314.683 207.946 316.605 205.995 C 317.662 204.922,319.441 203.651,320.558 203.170 C 321.675 202.690,323.147 201.871,323.828 201.351 C 324.509 200.832,325.682 200.289,326.433 200.145 C 327.185 200.001,328.790 199.377,330.000 198.757 C 331.210 198.137,333.190 197.426,334.400 197.178 C 335.610 196.930,337.680 196.214,339.000 195.587 C 340.320 194.959,343.048 194.163,345.062 193.817 C 347.076 193.472,349.506 192.843,350.462 192.420 C 351.511 191.956,354.499 191.384,358.000 190.976 C 361.190 190.604,365.510 190.076,367.600 189.802 C 374.892 188.847,376.591 188.979,377.824 190.597 M34.967 221.147 C 35.239 221.587,33.827 222.894,33.468 222.534 C 33.320 222.387,33.200 222.466,33.200 222.710 C 33.200 223.565,33.810 223.429,34.854 222.340 C 35.845 221.306,35.929 220.800,35.110 220.800 C 34.913 220.800,34.849 220.956,34.967 221.147 M396.461 231.055 C 395.725 231.825,395.230 232.563,395.361 232.694 C 395.492 232.826,395.600 232.711,395.600 232.440 C 395.600 232.141,395.893 232.039,396.344 232.182 C 397.202 232.455,398.212 231.466,397.783 230.773 C 397.626 230.519,397.746 230.153,398.049 229.961 C 398.352 229.769,398.420 229.622,398.200 229.634 C 397.980 229.645,397.197 230.285,396.461 231.055 M393.200 246.200 C 392.454 246.970,391.974 247.600,392.135 247.600 C 392.295 247.600,393.057 246.970,393.827 246.200 C 394.597 245.430,395.076 244.800,394.892 244.800 C 394.708 244.800,393.946 245.430,393.200 246.200 M99.862 254.184 C 99.016 254.434,97.576 255.387,96.662 256.302 C 95.748 257.218,94.460 258.504,93.800 259.159 C 91.211 261.731,90.000 263.203,90.000 263.777 C 90.000 264.106,89.471 264.767,88.825 265.245 C 88.178 265.723,87.258 267.023,86.780 268.134 C 86.302 269.246,85.513 270.468,85.027 270.850 C 84.541 271.233,83.913 272.313,83.632 273.251 C 83.351 274.190,82.704 275.507,82.194 276.179 C 81.684 276.850,80.971 278.570,80.609 280.000 C 80.247 281.430,79.721 282.780,79.440 283.000 C 78.457 283.772,77.951 285.264,77.377 289.084 C 77.059 291.204,76.547 293.222,76.239 293.569 C 73.991 296.103,73.761 321.075,75.950 325.060 C 76.415 325.907,77.057 328.259,77.376 330.286 C 77.947 333.908,78.379 335.197,79.433 336.412 C 79.725 336.748,80.240 338.081,80.576 339.373 C 81.218 341.838,82.149 343.600,82.809 343.600 C 83.024 343.600,83.201 343.825,83.202 344.100 C 83.208 345.428,84.157 347.752,85.166 348.911 C 85.784 349.620,86.605 350.830,86.991 351.600 C 87.376 352.370,88.211 353.418,88.846 353.929 C 89.481 354.440,90.000 355.120,90.000 355.440 C 90.000 355.760,90.528 356.602,91.174 357.311 C 91.820 358.020,93.339 359.736,94.550 361.124 C 95.761 362.512,97.490 364.312,98.392 365.124 C 99.294 365.936,100.750 367.273,101.627 368.095 C 102.504 368.917,103.660 369.700,104.196 369.835 C 104.733 369.969,105.281 370.425,105.415 370.846 C 105.549 371.268,106.332 371.957,107.156 372.377 C 107.980 372.798,108.899 373.438,109.200 373.800 C 109.837 374.567,112.138 375.776,113.656 376.140 C 114.371 376.311,114.801 376.748,114.988 377.494 C 115.355 378.957,115.931 379.600,116.875 379.600 C 117.506 379.600,117.628 379.836,117.526 380.860 C 117.445 381.668,117.600 382.190,117.956 382.312 C 118.294 382.429,118.402 382.327,118.232 382.052 C 118.078 381.803,118.131 381.600,118.349 381.600 C 118.822 381.600,118.684 380.237,118.054 378.674 C 117.804 378.055,117.600 377.324,117.600 377.049 C 117.600 376.188,116.010 374.800,115.022 374.800 C 114.502 374.800,113.294 374.144,112.338 373.342 C 111.382 372.540,110.060 371.651,109.400 371.366 C 108.740 371.081,107.690 370.297,107.066 369.624 C 106.442 368.951,105.743 368.400,105.511 368.400 C 105.144 368.400,104.409 367.804,101.070 364.800 C 100.703 364.470,98.872 362.580,97.001 360.600 C 95.129 358.620,93.148 356.543,92.599 355.985 C 92.050 355.427,91.600 354.752,91.600 354.486 C 91.600 354.220,90.993 353.327,90.252 352.501 C 89.510 351.676,88.439 350.077,87.870 348.950 C 87.302 347.822,86.575 346.799,86.255 346.676 C 85.934 346.553,85.394 345.496,85.053 344.326 C 84.713 343.157,83.980 341.584,83.424 340.831 C 82.868 340.078,82.204 338.400,81.949 337.102 C 81.693 335.804,81.097 334.169,80.623 333.471 C 79.378 331.634,79.295 331.329,78.404 325.227 C 77.959 322.178,77.308 318.900,76.959 317.942 C 75.928 315.114,76.036 304.250,77.131 300.600 C 77.593 299.060,78.260 295.640,78.613 293.000 C 79.113 289.267,79.505 287.756,80.380 286.200 C 80.998 285.100,81.728 283.210,82.001 282.000 C 82.274 280.790,83.005 279.021,83.624 278.069 C 84.243 277.117,84.870 275.767,85.016 275.069 C 85.163 274.371,85.793 273.260,86.417 272.600 C 87.040 271.940,87.910 270.557,88.350 269.526 C 88.790 268.495,89.611 267.349,90.175 266.979 C 90.740 266.610,91.347 265.743,91.526 265.054 C 91.749 264.192,92.093 263.800,92.625 263.800 C 93.790 263.800,93.439 267.167,91.992 269.879 C 91.373 271.038,90.578 273.295,90.225 274.893 C 89.872 276.492,89.141 278.700,88.600 279.800 C 87.915 281.193,87.490 283.014,87.200 285.800 C 86.970 288.000,86.420 292.623,85.978 296.074 C 85.217 302.012,85.207 302.622,85.790 307.474 C 86.129 310.293,86.676 315.084,87.007 318.121 C 87.472 322.395,87.834 324.088,88.609 325.617 C 89.159 326.703,89.883 328.894,90.218 330.485 C 90.553 332.077,91.200 334.011,91.655 334.784 C 92.111 335.556,92.823 337.286,93.238 338.628 C 93.652 339.970,94.347 341.390,94.781 341.783 C 95.216 342.176,95.877 343.331,96.251 344.349 C 96.624 345.367,97.412 346.740,98.002 347.400 C 98.592 348.060,99.315 349.230,99.609 350.000 C 99.903 350.770,100.741 352.076,101.472 352.901 C 102.202 353.727,102.800 354.589,102.800 354.817 C 102.800 355.045,103.520 355.990,104.399 356.916 C 105.279 357.842,106.538 359.230,107.197 360.000 C 108.699 361.755,113.345 366.410,115.200 368.019 C 115.970 368.687,117.339 369.901,118.243 370.717 C 119.856 372.173,120.837 372.874,124.364 375.091 C 125.334 375.701,126.684 376.667,127.364 377.237 C 128.044 377.807,129.220 378.485,129.977 378.743 C 130.735 379.001,131.929 379.839,132.631 380.606 C 133.378 381.422,134.288 382.000,134.826 382.000 C 137.034 382.000,138.400 382.882,138.400 384.309 C 138.400 385.050,138.670 385.927,139.000 386.257 C 139.330 386.587,139.600 386.684,139.600 386.472 C 139.600 386.260,140.032 385.978,140.561 385.846 C 141.605 385.583,143.988 385.937,143.937 386.347 C 143.687 388.344,145.049 389.312,147.878 389.145 C 149.482 389.051,149.491 389.041,149.309 387.625 C 149.069 385.762,149.017 385.720,145.790 384.826 C 143.699 384.246,142.779 383.754,142.000 382.800 C 141.234 381.861,140.303 381.355,138.346 380.812 C 136.849 380.397,135.300 379.664,134.743 379.107 C 134.206 378.569,132.874 377.791,131.783 377.378 C 130.692 376.965,129.472 376.216,129.071 375.713 C 128.670 375.211,127.971 374.800,127.518 374.800 C 127.065 374.800,126.093 374.162,125.357 373.382 C 124.621 372.602,123.226 371.613,122.257 371.184 C 121.288 370.755,120.190 369.940,119.818 369.371 C 119.445 368.803,118.639 368.163,118.026 367.949 C 117.412 367.735,116.708 367.116,116.460 366.572 C 116.212 366.029,115.550 365.409,114.988 365.196 C 114.427 364.982,113.659 364.265,113.283 363.603 C 112.908 362.940,112.278 362.294,111.885 362.167 C 111.492 362.040,110.733 361.245,110.200 360.400 C 109.667 359.555,108.878 358.752,108.448 358.615 C 108.019 358.479,107.484 357.844,107.261 357.203 C 107.038 356.563,106.473 355.716,106.005 355.320 C 105.538 354.924,104.623 353.674,103.973 352.543 C 103.322 351.411,102.358 350.202,101.830 349.856 C 101.302 349.510,100.744 348.654,100.590 347.953 C 100.436 347.252,99.907 346.301,99.415 345.839 C 98.923 345.378,98.198 344.023,97.804 342.829 C 97.411 341.636,96.674 340.275,96.168 339.805 C 95.602 339.281,94.984 337.905,94.565 336.237 C 94.190 334.744,93.442 332.998,92.902 332.357 C 92.159 331.474,91.831 330.440,91.547 328.096 C 91.122 324.578,90.547 322.485,89.753 321.572 C 87.468 318.945,87.470 288.541,89.755 283.846 C 90.990 281.309,91.114 280.860,91.563 277.286 C 91.832 275.145,92.182 274.099,92.927 273.214 C 93.515 272.515,94.182 270.914,94.541 269.340 C 94.880 267.856,95.432 266.502,95.777 266.309 C 96.559 265.871,97.413 264.223,97.803 262.400 C 97.967 261.630,98.619 260.409,99.251 259.686 C 99.883 258.963,100.400 257.928,100.400 257.386 C 100.400 256.844,100.760 256.040,101.200 255.600 C 102.699 254.101,102.142 253.513,99.862 254.184 M95.994 261.124 C 95.981 262.519,95.273 263.064,94.867 261.990 C 94.627 261.357,94.636 260.822,94.891 260.504 C 95.391 259.884,96.002 260.228,95.994 261.124 M6.080 262.080 C 5.850 262.310,5.769 262.775,5.899 263.114 C 6.055 263.519,5.975 263.632,5.668 263.442 C 5.411 263.283,5.200 263.333,5.200 263.553 C 5.200 263.773,5.380 264.064,5.600 264.200 C 5.820 264.336,6.000 264.257,6.000 264.024 C 6.000 263.791,6.346 263.254,6.769 262.831 C 7.344 262.256,7.407 262.011,7.018 261.862 C 6.732 261.752,6.310 261.850,6.080 262.080 M2.890 274.870 C 2.951 275.162,2.775 275.355,2.500 275.300 C 1.949 275.190,1.812 275.837,2.320 276.151 C 2.496 276.259,2.852 276.008,3.112 275.593 C 3.420 275.100,3.444 274.751,3.182 274.589 C 2.961 274.452,2.830 274.579,2.890 274.870 M375.127 293.000 C 374.877 293.550,374.475 294.003,374.236 294.006 C 373.996 294.009,374.064 294.179,374.387 294.383 C 375.142 294.861,376.121 294.091,375.805 293.268 C 375.677 292.936,375.804 292.517,376.086 292.338 C 376.498 292.077,376.499 292.011,376.091 292.006 C 375.812 292.003,375.378 292.450,375.127 293.000 M352.942 324.646 C 352.311 325.308,352.221 325.599,352.604 325.746 C 353.270 326.002,354.673 324.494,354.171 324.064 C 353.967 323.889,353.414 324.151,352.942 324.646 M334.388 344.214 C 334.112 344.547,334.002 344.935,334.143 345.076 C 334.284 345.218,334.400 345.113,334.400 344.843 C 334.400 344.573,334.568 344.456,334.772 344.583 C 334.977 344.709,335.250 344.643,335.379 344.434 C 335.786 343.775,334.914 343.581,334.388 344.214 M18.012 345.411 C 17.993 346.046,19.191 347.600,19.699 347.600 C 19.949 347.600,19.871 347.375,19.526 347.100 C 19.181 346.825,18.703 346.240,18.462 345.800 C 18.221 345.360,18.019 345.185,18.012 345.411 M19.200 346.000 C 19.435 346.440,19.830 346.800,20.076 346.800 C 20.322 346.800,20.198 346.440,19.800 346.000 C 19.402 345.560,19.008 345.200,18.924 345.200 C 18.840 345.200,18.965 345.560,19.200 346.000 M37.549 364.678 C 37.799 365.160,38.195 365.673,38.429 365.818 C 39.225 366.310,39.045 365.802,38.068 364.800 C 37.185 363.894,37.136 363.883,37.549 364.678 M303.099 365.417 C 302.596 366.089,302.529 366.433,302.861 366.638 C 303.130 366.804,303.216 366.749,303.066 366.507 C 302.768 366.024,303.744 365.078,304.137 365.470 C 304.282 365.615,304.400 365.534,304.400 365.290 C 304.400 364.433,303.793 364.492,303.099 365.417 M46.876 370.766 C 46.968 371.077,47.484 371.606,48.022 371.941 C 48.780 372.414,48.865 372.421,48.400 371.975 C 48.070 371.659,47.554 371.130,47.254 370.800 C 46.815 370.317,46.741 370.310,46.876 370.766 M52.161 374.064 C 51.821 374.614,53.283 376.056,53.805 375.687 C 54.054 375.511,53.863 375.061,53.314 374.523 C 52.763 373.984,52.319 373.807,52.161 374.064 M152.164 390.493 C 152.003 390.772,152.022 390.863,152.206 390.696 C 152.390 390.529,152.958 390.785,153.469 391.265 C 153.979 391.744,154.464 392.061,154.546 391.968 C 154.628 391.876,154.191 391.392,153.575 390.893 C 152.732 390.209,152.384 390.111,152.164 390.493 M196.200 391.050 C 195.381 391.747,195.279 391.932,195.878 391.633 C 196.360 391.393,196.868 391.014,197.005 390.791 C 197.143 390.569,197.451 390.508,197.689 390.655 C 197.949 390.815,198.009 390.737,197.838 390.462 C 197.484 389.889,197.622 389.839,196.200 391.050 " stroke="none" fill="#bc902a" fill-rule="evenodd"></path></g></svg>